%TF.GenerationSoftware,KiCad,Pcbnew,9.0.5*%
%TF.CreationDate,2026-03-07T21:07:17-03:00*%
%TF.ProjectId,Ponte,506f6e74-652e-46b6-9963-61645f706362,rev?*%
%TF.SameCoordinates,Original*%
%TF.FileFunction,Copper,L2,Inr*%
%TF.FilePolarity,Positive*%
%FSLAX46Y46*%
G04 Gerber Fmt 4.6, Leading zero omitted, Abs format (unit mm)*
G04 Created by KiCad (PCBNEW 9.0.5) date 2026-03-07 21:07:17*
%MOMM*%
%LPD*%
G01*
G04 APERTURE LIST*
G04 Aperture macros list*
%AMRoundRect*
0 Rectangle with rounded corners*
0 $1 Rounding radius*
0 $2 $3 $4 $5 $6 $7 $8 $9 X,Y pos of 4 corners*
0 Add a 4 corners polygon primitive as box body*
4,1,4,$2,$3,$4,$5,$6,$7,$8,$9,$2,$3,0*
0 Add four circle primitives for the rounded corners*
1,1,$1+$1,$2,$3*
1,1,$1+$1,$4,$5*
1,1,$1+$1,$6,$7*
1,1,$1+$1,$8,$9*
0 Add four rect primitives between the rounded corners*
20,1,$1+$1,$2,$3,$4,$5,0*
20,1,$1+$1,$4,$5,$6,$7,0*
20,1,$1+$1,$6,$7,$8,$9,0*
20,1,$1+$1,$8,$9,$2,$3,0*%
G04 Aperture macros list end*
%TA.AperFunction,ComponentPad*%
%ADD10C,5.000000*%
%TD*%
%TA.AperFunction,ComponentPad*%
%ADD11RoundRect,0.250000X0.845000X-0.620000X0.845000X0.620000X-0.845000X0.620000X-0.845000X-0.620000X0*%
%TD*%
%TA.AperFunction,ComponentPad*%
%ADD12O,2.190000X1.740000*%
%TD*%
%TA.AperFunction,ComponentPad*%
%ADD13RoundRect,0.250000X0.620000X0.845000X-0.620000X0.845000X-0.620000X-0.845000X0.620000X-0.845000X0*%
%TD*%
%TA.AperFunction,ComponentPad*%
%ADD14O,1.740000X2.190000*%
%TD*%
%TA.AperFunction,ComponentPad*%
%ADD15C,1.440000*%
%TD*%
%TA.AperFunction,ViaPad*%
%ADD16C,0.500000*%
%TD*%
%TA.AperFunction,ViaPad*%
%ADD17C,1.000000*%
%TD*%
G04 APERTURE END LIST*
D10*
%TO.N,GND*%
%TO.C,*%
X40876000Y-142655000D03*
%TD*%
%TO.N,GND*%
%TO.C,*%
X134676000Y-142555000D03*
%TD*%
%TO.N,GND*%
%TO.C,*%
X40776000Y-118655000D03*
%TD*%
%TO.N,GND*%
%TO.C,*%
X134678694Y-118646337D03*
%TD*%
D11*
%TO.N,GND*%
%TO.C,J1*%
X41438664Y-128607340D03*
D12*
%TO.N,+VIN*%
X41438664Y-126067340D03*
%TD*%
D11*
%TO.N,Net-(J3-Pin_1)*%
%TO.C,J3*%
X102299677Y-127281605D03*
D12*
%TO.N,/S-*%
X102299677Y-124741605D03*
%TO.N,Net-(J3-Pin_3)*%
X102299677Y-122201605D03*
%TO.N,Net-(J3-Pin_4)*%
X102299677Y-119661605D03*
%TD*%
D13*
%TO.N,Net-(J5-Pin_1)*%
%TO.C,J5*%
X127848898Y-121226007D03*
D14*
%TO.N,GND*%
X125308898Y-121226007D03*
%TD*%
D15*
%TO.N,/S+*%
%TO.C,RV2*%
X110225986Y-136759861D03*
%TO.N,GND*%
X110225986Y-139299861D03*
X110225986Y-141839861D03*
%TD*%
%TO.N,/S+*%
%TO.C,RV1*%
X97087687Y-136756438D03*
%TO.N,Net-(Q2-E)*%
X97087687Y-139296438D03*
X97087687Y-141836438D03*
%TD*%
D13*
%TO.N,Net-(J4-Pin_1)*%
%TO.C,J4*%
X115716000Y-121255000D03*
D14*
%TO.N,Net-(J4-Pin_2)*%
X113176000Y-121255000D03*
%TD*%
D16*
%TO.N,+5V*%
X86476000Y-133755000D03*
X80476000Y-126155000D03*
X87476000Y-134255000D03*
X81676000Y-129255000D03*
X77676000Y-129755000D03*
X126076000Y-126955000D03*
X80376000Y-130355000D03*
X86276000Y-132455000D03*
X81476000Y-125855000D03*
X70076000Y-135155000D03*
X81676000Y-127155000D03*
D17*
X84876000Y-141555000D03*
D16*
X125053327Y-127926965D03*
X69376000Y-133455000D03*
X79076000Y-129255000D03*
D17*
X80476000Y-127255000D03*
D16*
X120076000Y-130155000D03*
X126176000Y-128055000D03*
X118876000Y-129355000D03*
X118876000Y-130255000D03*
X119876000Y-129255000D03*
X85376000Y-133855000D03*
X70576000Y-134355000D03*
X70576000Y-133155000D03*
X69076000Y-135155000D03*
X103976000Y-132355000D03*
X80476000Y-129055000D03*
%TO.N,GND*%
X70331607Y-127777288D03*
X47176000Y-130155000D03*
X79075175Y-139546362D03*
X71315982Y-130136893D03*
X43573396Y-131044840D03*
X71808169Y-131613456D03*
X116476000Y-131655000D03*
X55876000Y-133355000D03*
X45033781Y-131186935D03*
X55676000Y-130755000D03*
X86576000Y-127255000D03*
X48876000Y-130155000D03*
X123076000Y-127655000D03*
X104776000Y-131155000D03*
X42973396Y-130144840D03*
X61576000Y-127755000D03*
X79335745Y-138330369D03*
X105476000Y-138655000D03*
X129881462Y-126921913D03*
X80247739Y-139618743D03*
X112076000Y-131655000D03*
X122876000Y-130655000D03*
X77381470Y-135131150D03*
X65176000Y-126755000D03*
X123976000Y-120055000D03*
X47876000Y-128855000D03*
X88460095Y-132297898D03*
X130076000Y-132524625D03*
X43422844Y-129094932D03*
X103876000Y-130355000D03*
X80913640Y-138388274D03*
X72068739Y-130672509D03*
X69376184Y-128008906D03*
X44276000Y-135955000D03*
X135876000Y-134755000D03*
X78394798Y-134682391D03*
X124776000Y-123155000D03*
X123876000Y-121855000D03*
X55076000Y-132155000D03*
X118865716Y-127336232D03*
X39573396Y-129444840D03*
X70186846Y-128964329D03*
X62676000Y-127755000D03*
X41473396Y-130644840D03*
X40273396Y-130444840D03*
X124976000Y-119355000D03*
%TO.N,/S-*%
X102128327Y-130326965D03*
%TO.N,Net-(J3-Pin_1)*%
X86476000Y-129255000D03*
%TO.N,+VIN*%
X63376000Y-129855000D03*
X42273396Y-124144840D03*
X43473396Y-125244840D03*
X39473396Y-126644840D03*
X62204781Y-125758143D03*
X40873396Y-124144840D03*
X43373396Y-126744840D03*
X43273396Y-124144840D03*
X39773396Y-124144840D03*
X39573396Y-125444840D03*
%TD*%
%TA.AperFunction,Conductor*%
%TO.N,GND*%
G36*
X37934397Y-143356635D02*
G01*
X37972171Y-143415413D01*
X37974085Y-143422756D01*
X37988705Y-143486814D01*
X37988709Y-143486826D01*
X38099995Y-143804862D01*
X38246191Y-144108440D01*
X38425461Y-144393747D01*
X38584397Y-144593048D01*
X39653340Y-143524105D01*
X39731864Y-143632184D01*
X39898816Y-143799136D01*
X40006893Y-143877658D01*
X38937950Y-144946601D01*
X39137252Y-145105538D01*
X39422559Y-145284808D01*
X39578939Y-145360117D01*
X39630798Y-145406939D01*
X39649111Y-145474367D01*
X39628063Y-145540990D01*
X39574337Y-145585659D01*
X39525137Y-145595837D01*
X37853194Y-145595837D01*
X37786155Y-145576152D01*
X37740400Y-145523348D01*
X37729194Y-145471837D01*
X37729194Y-143450348D01*
X37748879Y-143383309D01*
X37801683Y-143337554D01*
X37870841Y-143327610D01*
X37934397Y-143356635D01*
G37*
%TD.AperFunction*%
%TA.AperFunction,Conductor*%
G36*
X133412858Y-115716522D02*
G01*
X133458613Y-115769326D01*
X133468557Y-115838484D01*
X133439532Y-115902040D01*
X133399621Y-115932557D01*
X133225253Y-116016528D01*
X132939946Y-116195798D01*
X132740644Y-116354734D01*
X133809587Y-117423677D01*
X133701510Y-117502201D01*
X133534558Y-117669153D01*
X133456034Y-117777230D01*
X132387091Y-116708287D01*
X132228155Y-116907589D01*
X132048885Y-117192896D01*
X131902689Y-117496474D01*
X131791403Y-117814510D01*
X131791399Y-117814522D01*
X131716421Y-118143023D01*
X131716419Y-118143039D01*
X131678694Y-118477856D01*
X131678694Y-118814817D01*
X131716419Y-119149634D01*
X131716421Y-119149650D01*
X131791399Y-119478151D01*
X131791403Y-119478163D01*
X131902689Y-119796199D01*
X132048885Y-120099777D01*
X132228155Y-120385084D01*
X132387091Y-120584385D01*
X133456034Y-119515442D01*
X133534558Y-119623521D01*
X133701510Y-119790473D01*
X133809587Y-119868995D01*
X132740644Y-120937938D01*
X132939946Y-121096875D01*
X133225253Y-121276145D01*
X133528831Y-121422341D01*
X133846867Y-121533627D01*
X133846879Y-121533631D01*
X134175380Y-121608609D01*
X134175396Y-121608611D01*
X134510213Y-121646336D01*
X134510215Y-121646337D01*
X134847173Y-121646337D01*
X134847174Y-121646336D01*
X135181991Y-121608611D01*
X135182007Y-121608609D01*
X135510508Y-121533631D01*
X135510520Y-121533627D01*
X135828556Y-121422341D01*
X136132134Y-121276145D01*
X136417441Y-121096875D01*
X136616742Y-120937937D01*
X135547800Y-119868995D01*
X135655878Y-119790473D01*
X135822830Y-119623521D01*
X135901352Y-119515443D01*
X136970294Y-120584385D01*
X137129232Y-120385084D01*
X137308502Y-120099777D01*
X137392474Y-119925409D01*
X137439296Y-119873550D01*
X137506723Y-119855237D01*
X137573347Y-119876285D01*
X137618016Y-119930011D01*
X137628194Y-119979211D01*
X137628194Y-141227719D01*
X137608509Y-141294758D01*
X137555705Y-141340513D01*
X137486547Y-141350457D01*
X137422991Y-141321432D01*
X137392474Y-141281521D01*
X137305808Y-141101559D01*
X137126538Y-140816252D01*
X136967601Y-140616950D01*
X135898658Y-141685893D01*
X135820136Y-141577816D01*
X135653184Y-141410864D01*
X135545104Y-141332340D01*
X136614048Y-140263397D01*
X136414747Y-140104461D01*
X136129440Y-139925191D01*
X135825862Y-139778995D01*
X135507826Y-139667709D01*
X135507814Y-139667705D01*
X135179313Y-139592727D01*
X135179297Y-139592725D01*
X134844480Y-139555000D01*
X134507519Y-139555000D01*
X134172702Y-139592725D01*
X134172686Y-139592727D01*
X133844185Y-139667705D01*
X133844173Y-139667709D01*
X133526137Y-139778995D01*
X133222559Y-139925191D01*
X132937252Y-140104461D01*
X132737950Y-140263397D01*
X133806893Y-141332340D01*
X133698816Y-141410864D01*
X133531864Y-141577816D01*
X133453340Y-141685893D01*
X132384397Y-140616950D01*
X132225461Y-140816252D01*
X132046191Y-141101559D01*
X131899995Y-141405137D01*
X131788709Y-141723173D01*
X131788705Y-141723185D01*
X131713727Y-142051686D01*
X131713725Y-142051702D01*
X131676000Y-142386519D01*
X131676000Y-142723480D01*
X131713725Y-143058297D01*
X131713727Y-143058313D01*
X131788705Y-143386814D01*
X131788709Y-143386826D01*
X131899995Y-143704862D01*
X132046191Y-144008440D01*
X132225461Y-144293747D01*
X132384397Y-144493048D01*
X133453340Y-143424105D01*
X133531864Y-143532184D01*
X133698816Y-143699136D01*
X133806893Y-143777658D01*
X132737950Y-144846601D01*
X132937252Y-145005538D01*
X133222559Y-145184808D01*
X133526137Y-145331004D01*
X133594129Y-145354796D01*
X133650905Y-145395517D01*
X133676652Y-145460470D01*
X133663196Y-145529032D01*
X133614808Y-145579434D01*
X133553174Y-145595837D01*
X42226863Y-145595837D01*
X42159824Y-145576152D01*
X42114069Y-145523348D01*
X42104125Y-145454190D01*
X42133150Y-145390634D01*
X42173061Y-145360117D01*
X42329440Y-145284808D01*
X42614747Y-145105538D01*
X42814048Y-144946600D01*
X41745106Y-143877658D01*
X41853184Y-143799136D01*
X42020136Y-143632184D01*
X42098658Y-143524106D01*
X43167600Y-144593048D01*
X43326538Y-144393747D01*
X43505808Y-144108440D01*
X43652004Y-143804862D01*
X43763290Y-143486826D01*
X43763294Y-143486814D01*
X43838272Y-143158313D01*
X43838274Y-143158297D01*
X43875999Y-142823480D01*
X43876000Y-142823478D01*
X43876000Y-142486521D01*
X43875999Y-142486519D01*
X43838274Y-142151702D01*
X43838272Y-142151686D01*
X43763294Y-141823185D01*
X43763290Y-141823173D01*
X43652006Y-141505142D01*
X43652004Y-141505137D01*
X43634307Y-141468389D01*
X83775500Y-141468389D01*
X83775500Y-141641611D01*
X83802598Y-141812701D01*
X83844080Y-141940369D01*
X83856128Y-141977447D01*
X83907973Y-142079200D01*
X83934768Y-142131788D01*
X84036586Y-142271928D01*
X84159072Y-142394414D01*
X84299212Y-142496232D01*
X84453555Y-142574873D01*
X84618299Y-142628402D01*
X84789389Y-142655500D01*
X84789390Y-142655500D01*
X84962610Y-142655500D01*
X84962611Y-142655500D01*
X85133701Y-142628402D01*
X85298445Y-142574873D01*
X85452788Y-142496232D01*
X85592928Y-142394414D01*
X85715414Y-142271928D01*
X85817232Y-142131788D01*
X85895873Y-141977445D01*
X85949402Y-141812701D01*
X85976500Y-141641611D01*
X85976500Y-141468389D01*
X85949402Y-141297299D01*
X85895873Y-141132555D01*
X85817232Y-140978212D01*
X85715414Y-140838072D01*
X85592928Y-140715586D01*
X85452788Y-140613768D01*
X85298445Y-140535127D01*
X85133701Y-140481598D01*
X85133699Y-140481597D01*
X85133698Y-140481597D01*
X85002271Y-140460781D01*
X84962611Y-140454500D01*
X84789389Y-140454500D01*
X84749728Y-140460781D01*
X84618302Y-140481597D01*
X84453552Y-140535128D01*
X84299211Y-140613768D01*
X84219256Y-140671859D01*
X84159072Y-140715586D01*
X84159070Y-140715588D01*
X84159069Y-140715588D01*
X84036588Y-140838069D01*
X84036588Y-140838070D01*
X84036586Y-140838072D01*
X83992859Y-140898256D01*
X83934768Y-140978211D01*
X83856128Y-141132552D01*
X83856127Y-141132554D01*
X83856127Y-141132555D01*
X83852296Y-141144345D01*
X83802597Y-141297302D01*
X83790753Y-141372085D01*
X83775500Y-141468389D01*
X43634307Y-141468389D01*
X43505808Y-141201559D01*
X43326538Y-140916252D01*
X43167601Y-140716950D01*
X42098658Y-141785893D01*
X42020136Y-141677816D01*
X41853184Y-141510864D01*
X41745104Y-141432340D01*
X42814048Y-140363397D01*
X42614747Y-140204461D01*
X42329440Y-140025191D01*
X42025862Y-139878995D01*
X41707826Y-139767709D01*
X41707814Y-139767705D01*
X41379313Y-139692727D01*
X41379297Y-139692725D01*
X41044480Y-139655000D01*
X40707519Y-139655000D01*
X40372702Y-139692725D01*
X40372686Y-139692727D01*
X40044185Y-139767705D01*
X40044173Y-139767709D01*
X39726137Y-139878995D01*
X39422559Y-140025191D01*
X39137252Y-140204461D01*
X38937950Y-140363397D01*
X40006893Y-141432340D01*
X39898816Y-141510864D01*
X39731864Y-141677816D01*
X39653340Y-141785893D01*
X38584397Y-140716950D01*
X38425461Y-140916252D01*
X38246191Y-141201559D01*
X38099995Y-141505137D01*
X37988709Y-141823173D01*
X37988706Y-141823181D01*
X37974085Y-141887244D01*
X37939976Y-141948222D01*
X37878315Y-141981080D01*
X37808678Y-141975385D01*
X37753174Y-141932945D01*
X37729426Y-141867235D01*
X37729194Y-141859651D01*
X37729194Y-136652506D01*
X95767187Y-136652506D01*
X95767187Y-136860369D01*
X95799701Y-137065652D01*
X95799702Y-137065656D01*
X95863932Y-137263334D01*
X95958294Y-137448531D01*
X96080466Y-137616686D01*
X96227439Y-137763659D01*
X96395594Y-137885831D01*
X96448161Y-137912615D01*
X96454712Y-137915953D01*
X96505508Y-137963928D01*
X96522303Y-138031749D01*
X96499766Y-138097883D01*
X96454712Y-138136923D01*
X96395593Y-138167045D01*
X96354718Y-138196743D01*
X96227439Y-138289217D01*
X96227437Y-138289219D01*
X96227436Y-138289219D01*
X96080468Y-138436187D01*
X96080468Y-138436188D01*
X96080466Y-138436190D01*
X96027997Y-138508406D01*
X95958294Y-138604344D01*
X95863933Y-138789539D01*
X95799701Y-138987223D01*
X95767187Y-139192506D01*
X95767187Y-139400369D01*
X95797654Y-139592725D01*
X95799702Y-139605656D01*
X95863932Y-139803334D01*
X95958294Y-139988531D01*
X96080466Y-140156686D01*
X96227439Y-140303659D01*
X96395594Y-140425831D01*
X96448161Y-140452615D01*
X96454712Y-140455953D01*
X96505508Y-140503928D01*
X96522303Y-140571749D01*
X96499766Y-140637883D01*
X96454712Y-140676923D01*
X96395593Y-140707045D01*
X96299655Y-140776748D01*
X96227439Y-140829217D01*
X96227437Y-140829219D01*
X96227436Y-140829219D01*
X96080468Y-140976187D01*
X96080468Y-140976188D01*
X96080466Y-140976190D01*
X96078998Y-140978211D01*
X95958294Y-141144344D01*
X95863933Y-141329539D01*
X95863932Y-141329541D01*
X95863932Y-141329542D01*
X95837509Y-141410864D01*
X95799701Y-141527223D01*
X95767187Y-141732506D01*
X95767187Y-141940369D01*
X95799701Y-142145652D01*
X95799702Y-142145656D01*
X95863932Y-142343334D01*
X95958294Y-142528531D01*
X96080466Y-142696686D01*
X96227439Y-142843659D01*
X96395594Y-142965831D01*
X96580791Y-143060193D01*
X96778469Y-143124423D01*
X96855453Y-143136616D01*
X96983756Y-143156938D01*
X96983761Y-143156938D01*
X97191618Y-143156938D01*
X97305664Y-143138874D01*
X97396905Y-143124423D01*
X97594583Y-143060193D01*
X97779780Y-142965831D01*
X97947935Y-142843659D01*
X98094908Y-142696686D01*
X98217080Y-142528531D01*
X98311442Y-142343334D01*
X98375672Y-142145656D01*
X98399652Y-141994255D01*
X98408187Y-141940369D01*
X98408187Y-141732506D01*
X98386289Y-141594255D01*
X98375672Y-141527220D01*
X98311442Y-141329542D01*
X98217080Y-141144345D01*
X98094908Y-140976190D01*
X97947935Y-140829217D01*
X97863857Y-140768131D01*
X97779778Y-140707043D01*
X97720662Y-140676923D01*
X97669866Y-140628949D01*
X97653070Y-140561128D01*
X97675607Y-140494993D01*
X97720662Y-140455953D01*
X97779778Y-140425832D01*
X97779777Y-140425832D01*
X97779780Y-140425831D01*
X97947935Y-140303659D01*
X98094908Y-140156686D01*
X98217080Y-139988531D01*
X98311442Y-139803334D01*
X98375672Y-139605656D01*
X98399652Y-139454255D01*
X98408187Y-139400369D01*
X98408187Y-139192506D01*
X98375672Y-138987223D01*
X98375672Y-138987220D01*
X98311442Y-138789542D01*
X98217080Y-138604345D01*
X98094908Y-138436190D01*
X97947935Y-138289217D01*
X97820656Y-138196743D01*
X97779778Y-138167043D01*
X97720662Y-138136923D01*
X97669866Y-138088949D01*
X97653070Y-138021128D01*
X97675607Y-137954993D01*
X97720662Y-137915953D01*
X97779778Y-137885832D01*
X97779777Y-137885832D01*
X97779780Y-137885831D01*
X97947935Y-137763659D01*
X98094908Y-137616686D01*
X98217080Y-137448531D01*
X98311442Y-137263334D01*
X98375672Y-137065656D01*
X98390123Y-136974415D01*
X98408187Y-136860369D01*
X98408187Y-136655929D01*
X108905486Y-136655929D01*
X108905486Y-136863792D01*
X108938000Y-137069075D01*
X108938001Y-137069079D01*
X109002231Y-137266757D01*
X109096593Y-137451954D01*
X109218765Y-137620109D01*
X109365738Y-137767082D01*
X109533893Y-137889254D01*
X109662914Y-137954993D01*
X109703697Y-137975773D01*
X109754493Y-138023747D01*
X109771288Y-138091568D01*
X109748751Y-138157703D01*
X109703698Y-138196742D01*
X109586567Y-138256424D01*
X109557338Y-138277659D01*
X109557337Y-138277659D01*
X110179540Y-138899861D01*
X110173325Y-138899861D01*
X110071592Y-138927120D01*
X109980380Y-138979781D01*
X109905906Y-139054255D01*
X109853245Y-139145467D01*
X109825986Y-139247200D01*
X109825986Y-139253414D01*
X109203784Y-138631212D01*
X109203784Y-138631213D01*
X109182550Y-138660439D01*
X109095369Y-138831539D01*
X109036026Y-139014176D01*
X109005986Y-139203845D01*
X109005986Y-139395876D01*
X109036026Y-139585545D01*
X109095369Y-139768182D01*
X109182547Y-139939276D01*
X109203784Y-139968507D01*
X109825986Y-139346306D01*
X109825986Y-139352522D01*
X109853245Y-139454255D01*
X109905906Y-139545467D01*
X109980380Y-139619941D01*
X110071592Y-139672602D01*
X110173325Y-139699861D01*
X110179540Y-139699861D01*
X109557337Y-140322061D01*
X109557338Y-140322062D01*
X109586563Y-140343295D01*
X109757664Y-140430477D01*
X109823689Y-140451930D01*
X109881364Y-140491368D01*
X109908562Y-140555727D01*
X109896647Y-140624573D01*
X109849403Y-140676049D01*
X109823689Y-140687792D01*
X109757664Y-140709244D01*
X109586564Y-140796425D01*
X109557338Y-140817659D01*
X109557337Y-140817659D01*
X110179540Y-141439861D01*
X110173325Y-141439861D01*
X110071592Y-141467120D01*
X109980380Y-141519781D01*
X109905906Y-141594255D01*
X109853245Y-141685467D01*
X109825986Y-141787200D01*
X109825986Y-141793414D01*
X109203784Y-141171212D01*
X109203784Y-141171213D01*
X109182550Y-141200439D01*
X109095369Y-141371539D01*
X109036026Y-141554176D01*
X109005986Y-141743845D01*
X109005986Y-141935876D01*
X109036026Y-142125545D01*
X109095369Y-142308182D01*
X109182547Y-142479276D01*
X109203784Y-142508507D01*
X109825986Y-141886306D01*
X109825986Y-141892522D01*
X109853245Y-141994255D01*
X109905906Y-142085467D01*
X109980380Y-142159941D01*
X110071592Y-142212602D01*
X110173325Y-142239861D01*
X110179540Y-142239861D01*
X109557337Y-142862061D01*
X109557338Y-142862062D01*
X109586563Y-142883295D01*
X109757664Y-142970477D01*
X109940301Y-143029820D01*
X110129971Y-143059861D01*
X110322001Y-143059861D01*
X110511670Y-143029820D01*
X110694307Y-142970477D01*
X110865405Y-142883297D01*
X110894632Y-142862062D01*
X110894632Y-142862061D01*
X110272433Y-142239861D01*
X110278647Y-142239861D01*
X110380380Y-142212602D01*
X110471592Y-142159941D01*
X110546066Y-142085467D01*
X110598727Y-141994255D01*
X110625986Y-141892522D01*
X110625986Y-141886307D01*
X111248186Y-142508507D01*
X111248187Y-142508507D01*
X111269422Y-142479280D01*
X111347141Y-142326750D01*
X111347142Y-142326748D01*
X111356601Y-142308184D01*
X111415945Y-142125545D01*
X111445986Y-141935876D01*
X111445986Y-141743845D01*
X111415945Y-141554176D01*
X111356602Y-141371539D01*
X111269420Y-141200438D01*
X111248187Y-141171213D01*
X111248186Y-141171212D01*
X110625986Y-141793413D01*
X110625986Y-141787200D01*
X110598727Y-141685467D01*
X110546066Y-141594255D01*
X110471592Y-141519781D01*
X110380380Y-141467120D01*
X110278647Y-141439861D01*
X110272433Y-141439861D01*
X110894632Y-140817659D01*
X110865401Y-140796422D01*
X110694305Y-140709244D01*
X110628283Y-140687792D01*
X110570607Y-140648354D01*
X110543409Y-140583996D01*
X110555324Y-140515149D01*
X110602568Y-140463674D01*
X110628283Y-140451930D01*
X110694305Y-140430477D01*
X110865405Y-140343297D01*
X110894632Y-140322062D01*
X110894632Y-140322061D01*
X110272433Y-139699861D01*
X110278647Y-139699861D01*
X110380380Y-139672602D01*
X110471592Y-139619941D01*
X110546066Y-139545467D01*
X110598727Y-139454255D01*
X110625986Y-139352522D01*
X110625986Y-139346307D01*
X111248186Y-139968507D01*
X111248187Y-139968507D01*
X111269422Y-139939280D01*
X111356602Y-139768182D01*
X111415945Y-139585545D01*
X111445986Y-139395876D01*
X111445986Y-139203845D01*
X111415945Y-139014176D01*
X111356602Y-138831539D01*
X111269420Y-138660438D01*
X111248187Y-138631213D01*
X111248186Y-138631212D01*
X110625986Y-139253413D01*
X110625986Y-139247200D01*
X110598727Y-139145467D01*
X110546066Y-139054255D01*
X110471592Y-138979781D01*
X110380380Y-138927120D01*
X110278647Y-138899861D01*
X110272433Y-138899861D01*
X110894632Y-138277659D01*
X110865401Y-138256422D01*
X110748274Y-138196743D01*
X110697478Y-138148769D01*
X110680683Y-138080948D01*
X110703220Y-138014813D01*
X110748275Y-137975773D01*
X110918077Y-137889255D01*
X110918076Y-137889255D01*
X110918079Y-137889254D01*
X111086234Y-137767082D01*
X111233207Y-137620109D01*
X111355379Y-137451954D01*
X111449741Y-137266757D01*
X111513971Y-137069079D01*
X111528422Y-136977838D01*
X111546486Y-136863792D01*
X111546486Y-136655929D01*
X111513971Y-136450646D01*
X111513971Y-136450643D01*
X111449741Y-136252965D01*
X111355379Y-136067768D01*
X111233207Y-135899613D01*
X111086234Y-135752640D01*
X110918079Y-135630468D01*
X110732882Y-135536106D01*
X110535204Y-135471876D01*
X110535202Y-135471875D01*
X110535200Y-135471875D01*
X110329917Y-135439361D01*
X110329912Y-135439361D01*
X110122060Y-135439361D01*
X110122055Y-135439361D01*
X109916771Y-135471875D01*
X109719087Y-135536107D01*
X109533892Y-135630468D01*
X109442097Y-135697162D01*
X109365738Y-135752640D01*
X109365736Y-135752642D01*
X109365735Y-135752642D01*
X109218767Y-135899610D01*
X109218767Y-135899611D01*
X109218765Y-135899613D01*
X109212161Y-135908703D01*
X109096593Y-136067767D01*
X109002232Y-136252962D01*
X108938000Y-136450646D01*
X108905486Y-136655929D01*
X98408187Y-136655929D01*
X98408187Y-136652506D01*
X98386510Y-136515650D01*
X98375672Y-136447220D01*
X98311442Y-136249542D01*
X98217080Y-136064345D01*
X98094908Y-135896190D01*
X97947935Y-135749217D01*
X97779780Y-135627045D01*
X97594583Y-135532683D01*
X97396905Y-135468453D01*
X97396903Y-135468452D01*
X97396901Y-135468452D01*
X97191618Y-135435938D01*
X97191613Y-135435938D01*
X96983761Y-135435938D01*
X96983756Y-135435938D01*
X96778472Y-135468452D01*
X96580788Y-135532684D01*
X96395593Y-135627045D01*
X96299655Y-135696748D01*
X96227439Y-135749217D01*
X96227437Y-135749219D01*
X96227436Y-135749219D01*
X96080468Y-135896187D01*
X96080468Y-135896188D01*
X96080466Y-135896190D01*
X96071375Y-135908703D01*
X95958294Y-136064344D01*
X95863933Y-136249539D01*
X95799701Y-136447223D01*
X95767187Y-136652506D01*
X37729194Y-136652506D01*
X37729194Y-135071228D01*
X68225500Y-135071228D01*
X68225500Y-135238771D01*
X68258182Y-135403074D01*
X68258184Y-135403082D01*
X68322295Y-135557860D01*
X68415373Y-135697162D01*
X68533837Y-135815626D01*
X68613644Y-135868951D01*
X68673137Y-135908703D01*
X68827918Y-135972816D01*
X68992228Y-136005499D01*
X68992232Y-136005500D01*
X68992233Y-136005500D01*
X69159768Y-136005500D01*
X69159769Y-136005499D01*
X69324082Y-135972816D01*
X69478863Y-135908703D01*
X69507109Y-135889828D01*
X69573786Y-135868951D01*
X69641166Y-135887435D01*
X69644879Y-135889821D01*
X69673137Y-135908703D01*
X69827918Y-135972816D01*
X69992228Y-136005499D01*
X69992232Y-136005500D01*
X69992233Y-136005500D01*
X70159768Y-136005500D01*
X70159769Y-136005499D01*
X70324082Y-135972816D01*
X70478863Y-135908703D01*
X70618162Y-135815626D01*
X70736626Y-135697162D01*
X70829703Y-135557863D01*
X70893816Y-135403082D01*
X70926500Y-135238767D01*
X70926500Y-135209970D01*
X70946185Y-135142931D01*
X70981609Y-135106868D01*
X70983657Y-135105500D01*
X71118162Y-135015626D01*
X71236626Y-134897162D01*
X71329703Y-134757863D01*
X71393816Y-134603082D01*
X71426500Y-134438767D01*
X71426500Y-134271233D01*
X71393816Y-134106918D01*
X71329703Y-133952137D01*
X71244010Y-133823889D01*
X71227521Y-133771228D01*
X84525500Y-133771228D01*
X84525500Y-133938771D01*
X84558182Y-134103074D01*
X84558184Y-134103082D01*
X84622295Y-134257860D01*
X84715373Y-134397162D01*
X84833837Y-134515626D01*
X84919430Y-134572817D01*
X84973137Y-134608703D01*
X84973138Y-134608703D01*
X84973139Y-134608704D01*
X85008201Y-134623227D01*
X85127918Y-134672816D01*
X85292228Y-134705499D01*
X85292232Y-134705500D01*
X85292233Y-134705500D01*
X85459768Y-134705500D01*
X85459769Y-134705499D01*
X85624082Y-134672816D01*
X85778863Y-134608703D01*
X85918162Y-134515626D01*
X85918174Y-134515613D01*
X85921257Y-134513084D01*
X85923206Y-134512255D01*
X85923227Y-134512242D01*
X85923229Y-134512245D01*
X85985562Y-134485761D01*
X86054432Y-134497541D01*
X86068822Y-134505820D01*
X86073137Y-134508703D01*
X86227918Y-134572816D01*
X86360817Y-134599251D01*
X86392228Y-134605499D01*
X86392232Y-134605500D01*
X86392233Y-134605500D01*
X86559766Y-134605500D01*
X86559767Y-134605500D01*
X86591180Y-134599251D01*
X86660769Y-134605477D01*
X86715948Y-134648338D01*
X86718784Y-134652883D01*
X86718913Y-134652798D01*
X86815373Y-134797162D01*
X86933837Y-134915626D01*
X87026494Y-134977537D01*
X87073137Y-135008703D01*
X87227918Y-135072816D01*
X87392228Y-135105499D01*
X87392232Y-135105500D01*
X87392233Y-135105500D01*
X87559768Y-135105500D01*
X87559769Y-135105499D01*
X87724082Y-135072816D01*
X87878863Y-135008703D01*
X88018162Y-134915626D01*
X88136626Y-134797162D01*
X88229703Y-134657863D01*
X88293816Y-134503082D01*
X88326500Y-134338767D01*
X88326500Y-134171233D01*
X88293816Y-134006918D01*
X88229703Y-133852137D01*
X88198537Y-133805494D01*
X88136626Y-133712837D01*
X88018162Y-133594373D01*
X87878860Y-133501295D01*
X87724082Y-133437184D01*
X87724074Y-133437182D01*
X87559771Y-133404500D01*
X87559767Y-133404500D01*
X87392233Y-133404500D01*
X87392228Y-133404500D01*
X87360819Y-133410748D01*
X87291227Y-133404521D01*
X87236050Y-133361657D01*
X87233217Y-133357115D01*
X87233088Y-133357202D01*
X87136626Y-133212838D01*
X87136623Y-133212834D01*
X87018165Y-133094376D01*
X87013454Y-133090510D01*
X87014586Y-133089129D01*
X86975186Y-133041988D01*
X86966475Y-132972663D01*
X86985774Y-132923606D01*
X87029703Y-132857863D01*
X87093816Y-132703082D01*
X87126500Y-132538767D01*
X87126500Y-132371233D01*
X87110209Y-132289331D01*
X87110209Y-132289328D01*
X87106609Y-132271228D01*
X103125500Y-132271228D01*
X103125500Y-132438771D01*
X103158182Y-132603074D01*
X103158184Y-132603082D01*
X103222295Y-132757860D01*
X103315373Y-132897162D01*
X103433837Y-133015626D01*
X103473291Y-133041988D01*
X103573137Y-133108703D01*
X103727918Y-133172816D01*
X103892228Y-133205499D01*
X103892232Y-133205500D01*
X103892233Y-133205500D01*
X104059768Y-133205500D01*
X104059769Y-133205499D01*
X104224082Y-133172816D01*
X104378863Y-133108703D01*
X104518162Y-133015626D01*
X104636626Y-132897162D01*
X104729703Y-132757863D01*
X104793816Y-132603082D01*
X104826500Y-132438767D01*
X104826500Y-132271233D01*
X104793816Y-132106918D01*
X104729703Y-131952137D01*
X104698537Y-131905494D01*
X104636626Y-131812837D01*
X104518162Y-131694373D01*
X104378860Y-131601295D01*
X104224082Y-131537184D01*
X104224074Y-131537182D01*
X104059771Y-131504500D01*
X104059767Y-131504500D01*
X103892233Y-131504500D01*
X103892228Y-131504500D01*
X103727925Y-131537182D01*
X103727917Y-131537184D01*
X103573139Y-131601295D01*
X103433837Y-131694373D01*
X103315373Y-131812837D01*
X103222295Y-131952139D01*
X103158184Y-132106917D01*
X103158182Y-132106925D01*
X103125500Y-132271228D01*
X87106609Y-132271228D01*
X87093817Y-132206923D01*
X87093816Y-132206922D01*
X87093816Y-132206918D01*
X87029703Y-132052137D01*
X86998537Y-132005494D01*
X86936626Y-131912837D01*
X86818162Y-131794373D01*
X86678860Y-131701295D01*
X86524082Y-131637184D01*
X86524074Y-131637182D01*
X86359771Y-131604500D01*
X86359767Y-131604500D01*
X86192233Y-131604500D01*
X86192228Y-131604500D01*
X86027925Y-131637182D01*
X86027917Y-131637184D01*
X85873139Y-131701295D01*
X85733837Y-131794373D01*
X85615373Y-131912837D01*
X85522295Y-132052139D01*
X85458184Y-132206917D01*
X85458182Y-132206925D01*
X85425500Y-132371228D01*
X85425500Y-132538771D01*
X85457829Y-132701297D01*
X85458184Y-132703082D01*
X85478503Y-132752137D01*
X85512018Y-132833047D01*
X85519487Y-132902516D01*
X85488212Y-132964996D01*
X85428123Y-133000648D01*
X85397457Y-133004500D01*
X85292228Y-133004500D01*
X85127925Y-133037182D01*
X85127917Y-133037184D01*
X84973139Y-133101295D01*
X84833837Y-133194373D01*
X84715373Y-133312837D01*
X84622295Y-133452139D01*
X84558184Y-133606917D01*
X84558182Y-133606925D01*
X84525500Y-133771228D01*
X71227521Y-133771228D01*
X71223133Y-133757213D01*
X71241618Y-133689833D01*
X71244011Y-133686109D01*
X71329703Y-133557863D01*
X71393816Y-133403082D01*
X71426500Y-133238767D01*
X71426500Y-133071233D01*
X71393816Y-132906918D01*
X71329703Y-132752137D01*
X71291730Y-132695307D01*
X71236626Y-132612837D01*
X71118162Y-132494373D01*
X70978860Y-132401295D01*
X70824082Y-132337184D01*
X70824074Y-132337182D01*
X70659771Y-132304500D01*
X70659767Y-132304500D01*
X70492233Y-132304500D01*
X70492228Y-132304500D01*
X70327925Y-132337182D01*
X70327917Y-132337184D01*
X70173139Y-132401295D01*
X70033837Y-132494373D01*
X70033834Y-132494376D01*
X69915380Y-132612831D01*
X69915377Y-132612834D01*
X69896024Y-132641797D01*
X69842410Y-132686601D01*
X69773085Y-132695307D01*
X69745470Y-132687465D01*
X69624082Y-132637184D01*
X69624074Y-132637182D01*
X69459771Y-132604500D01*
X69459767Y-132604500D01*
X69292233Y-132604500D01*
X69292228Y-132604500D01*
X69127925Y-132637182D01*
X69127917Y-132637184D01*
X68973139Y-132701295D01*
X68833837Y-132794373D01*
X68715373Y-132912837D01*
X68622295Y-133052139D01*
X68558184Y-133206917D01*
X68558182Y-133206925D01*
X68525500Y-133371228D01*
X68525500Y-133538771D01*
X68558182Y-133703074D01*
X68558184Y-133703082D01*
X68622295Y-133857860D01*
X68715373Y-133997162D01*
X68833834Y-134115623D01*
X68833842Y-134115629D01*
X68843373Y-134121998D01*
X68888179Y-134175610D01*
X68896886Y-134244935D01*
X68866732Y-134307962D01*
X68821937Y-134339661D01*
X68673137Y-134401296D01*
X68533837Y-134494373D01*
X68415373Y-134612837D01*
X68322295Y-134752139D01*
X68258184Y-134906917D01*
X68258182Y-134906925D01*
X68225500Y-135071228D01*
X37729194Y-135071228D01*
X37729194Y-126561068D01*
X38622896Y-126561068D01*
X38622896Y-126728611D01*
X38655578Y-126892914D01*
X38655580Y-126892922D01*
X38719691Y-127047700D01*
X38812769Y-127187002D01*
X38931233Y-127305466D01*
X39009645Y-127357859D01*
X39070533Y-127398543D01*
X39070534Y-127398543D01*
X39070535Y-127398544D01*
X39081491Y-127403082D01*
X39225314Y-127462656D01*
X39389624Y-127495339D01*
X39389628Y-127495340D01*
X39389629Y-127495340D01*
X39557164Y-127495340D01*
X39557165Y-127495339D01*
X39721478Y-127462656D01*
X39789733Y-127434383D01*
X39859198Y-127426915D01*
X39921678Y-127458189D01*
X39957331Y-127518278D01*
X39954838Y-127588103D01*
X39942722Y-127614041D01*
X39909309Y-127668211D01*
X39909305Y-127668220D01*
X39854158Y-127834642D01*
X39854157Y-127834649D01*
X39843664Y-127937353D01*
X39843664Y-128357340D01*
X40895955Y-128357340D01*
X40884212Y-128377679D01*
X40843664Y-128529007D01*
X40843664Y-128685673D01*
X40884212Y-128837001D01*
X40895955Y-128857340D01*
X39843665Y-128857340D01*
X39843665Y-129277326D01*
X39854158Y-129380037D01*
X39909305Y-129546459D01*
X39909307Y-129546464D01*
X40001348Y-129695685D01*
X40125318Y-129819655D01*
X40274539Y-129911696D01*
X40274544Y-129911698D01*
X40440966Y-129966845D01*
X40440973Y-129966846D01*
X40543683Y-129977339D01*
X41188663Y-129977339D01*
X41188664Y-129977338D01*
X41188664Y-129150049D01*
X41209003Y-129161792D01*
X41360331Y-129202340D01*
X41516997Y-129202340D01*
X41668325Y-129161792D01*
X41688664Y-129150049D01*
X41688664Y-129977339D01*
X42333636Y-129977339D01*
X42333650Y-129977338D01*
X42436361Y-129966845D01*
X42602783Y-129911698D01*
X42602788Y-129911696D01*
X42752009Y-129819655D01*
X42800436Y-129771228D01*
X62525500Y-129771228D01*
X62525500Y-129938771D01*
X62558182Y-130103074D01*
X62558184Y-130103082D01*
X62622295Y-130257860D01*
X62715373Y-130397162D01*
X62833837Y-130515626D01*
X62919430Y-130572817D01*
X62973137Y-130608703D01*
X63127918Y-130672816D01*
X63250315Y-130697162D01*
X63292228Y-130705499D01*
X63292232Y-130705500D01*
X63292233Y-130705500D01*
X63459768Y-130705500D01*
X63459769Y-130705499D01*
X63624082Y-130672816D01*
X63778863Y-130608703D01*
X63918162Y-130515626D01*
X64036626Y-130397162D01*
X64129703Y-130257863D01*
X64193816Y-130103082D01*
X64226500Y-129938767D01*
X64226500Y-129771233D01*
X64210209Y-129689331D01*
X64210209Y-129689328D01*
X64206609Y-129671228D01*
X76825500Y-129671228D01*
X76825500Y-129838771D01*
X76858182Y-130003074D01*
X76858184Y-130003082D01*
X76922295Y-130157860D01*
X77015373Y-130297162D01*
X77133837Y-130415626D01*
X77226494Y-130477537D01*
X77273137Y-130508703D01*
X77427918Y-130572816D01*
X77580037Y-130603074D01*
X77592228Y-130605499D01*
X77592232Y-130605500D01*
X77592233Y-130605500D01*
X77759768Y-130605500D01*
X77759769Y-130605499D01*
X77924082Y-130572816D01*
X78078863Y-130508703D01*
X78218162Y-130415626D01*
X78336626Y-130297162D01*
X78429703Y-130157863D01*
X78473044Y-130053229D01*
X78516882Y-129998828D01*
X78583176Y-129976763D01*
X78650876Y-129994042D01*
X78656481Y-129997574D01*
X78673137Y-130008703D01*
X78827918Y-130072816D01*
X78980037Y-130103074D01*
X78992228Y-130105499D01*
X78992232Y-130105500D01*
X78992233Y-130105500D01*
X79159768Y-130105500D01*
X79159769Y-130105499D01*
X79324082Y-130072816D01*
X79372267Y-130052856D01*
X79441735Y-130045387D01*
X79504214Y-130076661D01*
X79539868Y-130136749D01*
X79541338Y-130191607D01*
X79525501Y-130271231D01*
X79525500Y-130271234D01*
X79525500Y-130438771D01*
X79558182Y-130603074D01*
X79558184Y-130603082D01*
X79622295Y-130757860D01*
X79715373Y-130897162D01*
X79833837Y-131015626D01*
X79919430Y-131072817D01*
X79973137Y-131108703D01*
X80127918Y-131172816D01*
X80292228Y-131205499D01*
X80292232Y-131205500D01*
X80292233Y-131205500D01*
X80459768Y-131205500D01*
X80459769Y-131205499D01*
X80624082Y-131172816D01*
X80778863Y-131108703D01*
X80918162Y-131015626D01*
X81036626Y-130897162D01*
X81129703Y-130757863D01*
X81193816Y-130603082D01*
X81226500Y-130438767D01*
X81226500Y-130271233D01*
X81220923Y-130243197D01*
X81220922Y-130243193D01*
X101277827Y-130243193D01*
X101277827Y-130410736D01*
X101310509Y-130575039D01*
X101310511Y-130575047D01*
X101374622Y-130729825D01*
X101467700Y-130869127D01*
X101586164Y-130987591D01*
X101628122Y-131015626D01*
X101725464Y-131080668D01*
X101880245Y-131144781D01*
X102021183Y-131172815D01*
X102044555Y-131177464D01*
X102044559Y-131177465D01*
X102044560Y-131177465D01*
X102212095Y-131177465D01*
X102212096Y-131177464D01*
X102376409Y-131144781D01*
X102531190Y-131080668D01*
X102670489Y-130987591D01*
X102788953Y-130869127D01*
X102882030Y-130729828D01*
X102946143Y-130575047D01*
X102978827Y-130410732D01*
X102978827Y-130243198D01*
X102946143Y-130078883D01*
X102888105Y-129938768D01*
X102882031Y-129924104D01*
X102873740Y-129911696D01*
X102834155Y-129852452D01*
X102788953Y-129784802D01*
X102670489Y-129666338D01*
X102531187Y-129573260D01*
X102376409Y-129509149D01*
X102376401Y-129509147D01*
X102212098Y-129476465D01*
X102212094Y-129476465D01*
X102044560Y-129476465D01*
X102044555Y-129476465D01*
X101880252Y-129509147D01*
X101880244Y-129509149D01*
X101725466Y-129573260D01*
X101586164Y-129666338D01*
X101467700Y-129784802D01*
X101374622Y-129924104D01*
X101310511Y-130078882D01*
X101310509Y-130078890D01*
X101277827Y-130243193D01*
X81220922Y-130243193D01*
X81210662Y-130191608D01*
X81216889Y-130122017D01*
X81259752Y-130066839D01*
X81325642Y-130043595D01*
X81379729Y-130052855D01*
X81427918Y-130072816D01*
X81580037Y-130103074D01*
X81592228Y-130105499D01*
X81592232Y-130105500D01*
X81592233Y-130105500D01*
X81759768Y-130105500D01*
X81759769Y-130105499D01*
X81924082Y-130072816D01*
X82078863Y-130008703D01*
X82218162Y-129915626D01*
X82336626Y-129797162D01*
X82429703Y-129657863D01*
X82493816Y-129503082D01*
X82526500Y-129338767D01*
X82526500Y-129171233D01*
X82526499Y-129171228D01*
X85625500Y-129171228D01*
X85625500Y-129338771D01*
X85658182Y-129503074D01*
X85658184Y-129503082D01*
X85722295Y-129657860D01*
X85815373Y-129797162D01*
X85933837Y-129915626D01*
X85988480Y-129952137D01*
X86073137Y-130008703D01*
X86227918Y-130072816D01*
X86380037Y-130103074D01*
X86392228Y-130105499D01*
X86392232Y-130105500D01*
X86392233Y-130105500D01*
X86559768Y-130105500D01*
X86559769Y-130105499D01*
X86724082Y-130072816D01*
X86878863Y-130008703D01*
X87018162Y-129915626D01*
X87136626Y-129797162D01*
X87229703Y-129657863D01*
X87293816Y-129503082D01*
X87326500Y-129338767D01*
X87326500Y-129271228D01*
X118025500Y-129271228D01*
X118025500Y-129438771D01*
X118058182Y-129603074D01*
X118058185Y-129603086D01*
X118122165Y-129757548D01*
X118129634Y-129827017D01*
X118122165Y-129852452D01*
X118058185Y-130006913D01*
X118058182Y-130006925D01*
X118025500Y-130171228D01*
X118025500Y-130338771D01*
X118058182Y-130503074D01*
X118058184Y-130503082D01*
X118122295Y-130657860D01*
X118215373Y-130797162D01*
X118333837Y-130915626D01*
X118419430Y-130972817D01*
X118473137Y-131008703D01*
X118627918Y-131072816D01*
X118792228Y-131105499D01*
X118792232Y-131105500D01*
X118792233Y-131105500D01*
X118959768Y-131105500D01*
X118959769Y-131105499D01*
X119124082Y-131072816D01*
X119278863Y-131008703D01*
X119418162Y-130915626D01*
X119452482Y-130881306D01*
X119513804Y-130847820D01*
X119583496Y-130852804D01*
X119609051Y-130865882D01*
X119673137Y-130908703D01*
X119827918Y-130972816D01*
X119992228Y-131005499D01*
X119992232Y-131005500D01*
X119992233Y-131005500D01*
X120159768Y-131005500D01*
X120159769Y-131005499D01*
X120324082Y-130972816D01*
X120478863Y-130908703D01*
X120618162Y-130815626D01*
X120736626Y-130697162D01*
X120829703Y-130557863D01*
X120893816Y-130403082D01*
X120926500Y-130238767D01*
X120926500Y-130071233D01*
X120893816Y-129906918D01*
X120829703Y-129752137D01*
X120787735Y-129689328D01*
X120736626Y-129612837D01*
X120736624Y-129612836D01*
X120729579Y-129605791D01*
X120696091Y-129544469D01*
X120695639Y-129493916D01*
X120726500Y-129338767D01*
X120726500Y-129171233D01*
X120693816Y-129006918D01*
X120629703Y-128852137D01*
X120579808Y-128777464D01*
X120536626Y-128712837D01*
X120418162Y-128594373D01*
X120278860Y-128501295D01*
X120124082Y-128437184D01*
X120124074Y-128437182D01*
X119959771Y-128404500D01*
X119959767Y-128404500D01*
X119792233Y-128404500D01*
X119792228Y-128404500D01*
X119627925Y-128437182D01*
X119627917Y-128437184D01*
X119473140Y-128501295D01*
X119361512Y-128575882D01*
X119294834Y-128596759D01*
X119245169Y-128587340D01*
X119124082Y-128537184D01*
X119124074Y-128537182D01*
X118959771Y-128504500D01*
X118959767Y-128504500D01*
X118792233Y-128504500D01*
X118792228Y-128504500D01*
X118627925Y-128537182D01*
X118627917Y-128537184D01*
X118473139Y-128601295D01*
X118333837Y-128694373D01*
X118215373Y-128812837D01*
X118122295Y-128952139D01*
X118058184Y-129106917D01*
X118058182Y-129106925D01*
X118025500Y-129271228D01*
X87326500Y-129271228D01*
X87326500Y-129171233D01*
X87293816Y-129006918D01*
X87229703Y-128852137D01*
X87179808Y-128777464D01*
X87136626Y-128712837D01*
X87018162Y-128594373D01*
X86878860Y-128501295D01*
X86724082Y-128437184D01*
X86724074Y-128437182D01*
X86559771Y-128404500D01*
X86559767Y-128404500D01*
X86392233Y-128404500D01*
X86392228Y-128404500D01*
X86227925Y-128437182D01*
X86227917Y-128437184D01*
X86073139Y-128501295D01*
X85933837Y-128594373D01*
X85815373Y-128712837D01*
X85722295Y-128852139D01*
X85658184Y-129006917D01*
X85658182Y-129006925D01*
X85625500Y-129171228D01*
X82526499Y-129171228D01*
X82493816Y-129006918D01*
X82429703Y-128852137D01*
X82379808Y-128777464D01*
X82336626Y-128712837D01*
X82218162Y-128594373D01*
X82078860Y-128501295D01*
X81924082Y-128437184D01*
X81924074Y-128437182D01*
X81759771Y-128404500D01*
X81759767Y-128404500D01*
X81592233Y-128404500D01*
X81592228Y-128404500D01*
X81427925Y-128437182D01*
X81427917Y-128437184D01*
X81273140Y-128501295D01*
X81273125Y-128501303D01*
X81268995Y-128504063D01*
X81238701Y-128513547D01*
X81208955Y-128524642D01*
X81205596Y-128523911D01*
X81202317Y-128524938D01*
X81171701Y-128516537D01*
X81140682Y-128509790D01*
X81136964Y-128507006D01*
X81134938Y-128506451D01*
X81112428Y-128488639D01*
X81019272Y-128395483D01*
X80985787Y-128334160D01*
X80990771Y-128264468D01*
X81032643Y-128208535D01*
X81050657Y-128197317D01*
X81052788Y-128196232D01*
X81192928Y-128094414D01*
X81289151Y-127998191D01*
X81350474Y-127964706D01*
X81420166Y-127969690D01*
X81424284Y-127971311D01*
X81425779Y-127971930D01*
X81427918Y-127972816D01*
X81555488Y-127998191D01*
X81592228Y-128005499D01*
X81592232Y-128005500D01*
X81592233Y-128005500D01*
X81759768Y-128005500D01*
X81759769Y-128005499D01*
X81924082Y-127972816D01*
X82078863Y-127908703D01*
X82218162Y-127815626D01*
X82336626Y-127697162D01*
X82429703Y-127557863D01*
X82493816Y-127403082D01*
X82526500Y-127238767D01*
X82526500Y-127071233D01*
X82493816Y-126906918D01*
X82429703Y-126752137D01*
X82368855Y-126661072D01*
X82336626Y-126612837D01*
X82218165Y-126494376D01*
X82213454Y-126490510D01*
X82214586Y-126489129D01*
X82175186Y-126441988D01*
X82166475Y-126372663D01*
X82185774Y-126323606D01*
X82229703Y-126257863D01*
X82293816Y-126103082D01*
X82326500Y-125938767D01*
X82326500Y-125771233D01*
X82293816Y-125606918D01*
X82229703Y-125452137D01*
X82195731Y-125401295D01*
X82136626Y-125312837D01*
X82018162Y-125194373D01*
X81878860Y-125101295D01*
X81724082Y-125037184D01*
X81724074Y-125037182D01*
X81559771Y-125004500D01*
X81559767Y-125004500D01*
X81392233Y-125004500D01*
X81392228Y-125004500D01*
X81227925Y-125037182D01*
X81227917Y-125037184D01*
X81073139Y-125101295D01*
X80933838Y-125194373D01*
X80826786Y-125301425D01*
X80765463Y-125334909D01*
X80714914Y-125335360D01*
X80559771Y-125304500D01*
X80559767Y-125304500D01*
X80392233Y-125304500D01*
X80392228Y-125304500D01*
X80227925Y-125337182D01*
X80227917Y-125337184D01*
X80073139Y-125401295D01*
X79933837Y-125494373D01*
X79815373Y-125612837D01*
X79722295Y-125752139D01*
X79658184Y-125906917D01*
X79658182Y-125906925D01*
X79625500Y-126071228D01*
X79625500Y-126238771D01*
X79658181Y-126403074D01*
X79658185Y-126403086D01*
X79659707Y-126406760D01*
X79659930Y-126408835D01*
X79659951Y-126408905D01*
X79659937Y-126408908D01*
X79667171Y-126476230D01*
X79639438Y-126534731D01*
X79636585Y-126538071D01*
X79534770Y-126678208D01*
X79456128Y-126832552D01*
X79402597Y-126997302D01*
X79384883Y-127109147D01*
X79375500Y-127168389D01*
X79375500Y-127341611D01*
X79378074Y-127357863D01*
X79400844Y-127501631D01*
X79402598Y-127512701D01*
X79456127Y-127677445D01*
X79534768Y-127831788D01*
X79636586Y-127971928D01*
X79759072Y-128094414D01*
X79899212Y-128196232D01*
X79899214Y-128196233D01*
X79901346Y-128197320D01*
X79902010Y-128197947D01*
X79903364Y-128198777D01*
X79903189Y-128199061D01*
X79919503Y-128214470D01*
X79940261Y-128228365D01*
X79944465Y-128238047D01*
X79952140Y-128245296D01*
X79958143Y-128269542D01*
X79968092Y-128292452D01*
X79966394Y-128302870D01*
X79968932Y-128313118D01*
X79960874Y-128336759D01*
X79956858Y-128361413D01*
X79948401Y-128373352D01*
X79946391Y-128379252D01*
X79937225Y-128390742D01*
X79934136Y-128394174D01*
X79933838Y-128394374D01*
X79815374Y-128512838D01*
X79780777Y-128564615D01*
X79774805Y-128571253D01*
X79752355Y-128585094D01*
X79732114Y-128602010D01*
X79723079Y-128603144D01*
X79715331Y-128607922D01*
X79688962Y-128607429D01*
X79662789Y-128610716D01*
X79652712Y-128606751D01*
X79645473Y-128606616D01*
X79635640Y-128600034D01*
X79613736Y-128591416D01*
X79532568Y-128537182D01*
X79478863Y-128501297D01*
X79478860Y-128501295D01*
X79478859Y-128501295D01*
X79324082Y-128437184D01*
X79324074Y-128437182D01*
X79159771Y-128404500D01*
X79159767Y-128404500D01*
X78992233Y-128404500D01*
X78992228Y-128404500D01*
X78827925Y-128437182D01*
X78827917Y-128437184D01*
X78673139Y-128501295D01*
X78533837Y-128594373D01*
X78415373Y-128712837D01*
X78322295Y-128852139D01*
X78278957Y-128956768D01*
X78235116Y-129011171D01*
X78168822Y-129033236D01*
X78101122Y-129015957D01*
X78095518Y-129012425D01*
X78078863Y-129001297D01*
X78078860Y-129001295D01*
X78078859Y-129001295D01*
X77924082Y-128937184D01*
X77924074Y-128937182D01*
X77759771Y-128904500D01*
X77759767Y-128904500D01*
X77592233Y-128904500D01*
X77592228Y-128904500D01*
X77427925Y-128937182D01*
X77427917Y-128937184D01*
X77273139Y-129001295D01*
X77133837Y-129094373D01*
X77015373Y-129212837D01*
X76922295Y-129352139D01*
X76858184Y-129506917D01*
X76858182Y-129506925D01*
X76825500Y-129671228D01*
X64206609Y-129671228D01*
X64193817Y-129606923D01*
X64193816Y-129606922D01*
X64193816Y-129606918D01*
X64129703Y-129452137D01*
X64081527Y-129380037D01*
X64036626Y-129312837D01*
X63918162Y-129194373D01*
X63778860Y-129101295D01*
X63624082Y-129037184D01*
X63624074Y-129037182D01*
X63459771Y-129004500D01*
X63459767Y-129004500D01*
X63292233Y-129004500D01*
X63292228Y-129004500D01*
X63127925Y-129037182D01*
X63127917Y-129037184D01*
X62973139Y-129101295D01*
X62833837Y-129194373D01*
X62715373Y-129312837D01*
X62622295Y-129452139D01*
X62558184Y-129606917D01*
X62558182Y-129606925D01*
X62525500Y-129771228D01*
X42800436Y-129771228D01*
X42875979Y-129695685D01*
X42968020Y-129546464D01*
X42968022Y-129546459D01*
X43023169Y-129380037D01*
X43023170Y-129380030D01*
X43033663Y-129277326D01*
X43033664Y-129277313D01*
X43033664Y-128857340D01*
X41981373Y-128857340D01*
X41993116Y-128837001D01*
X42033664Y-128685673D01*
X42033664Y-128529007D01*
X41993116Y-128377679D01*
X41981373Y-128357340D01*
X43033663Y-128357340D01*
X43033663Y-127937368D01*
X43033662Y-127937353D01*
X43023170Y-127834644D01*
X42986467Y-127723885D01*
X42984065Y-127654057D01*
X43019796Y-127594014D01*
X43082316Y-127562821D01*
X43128364Y-127563263D01*
X43289624Y-127595339D01*
X43289628Y-127595340D01*
X43289629Y-127595340D01*
X43457164Y-127595340D01*
X43457165Y-127595339D01*
X43621478Y-127562656D01*
X43776259Y-127498543D01*
X43915558Y-127405466D01*
X44034022Y-127287002D01*
X44127099Y-127147703D01*
X44191212Y-126992922D01*
X44223896Y-126828607D01*
X44223896Y-126661073D01*
X44191212Y-126496758D01*
X44127099Y-126341977D01*
X44070896Y-126257863D01*
X44034022Y-126202677D01*
X43955301Y-126123956D01*
X43921816Y-126062633D01*
X43926800Y-125992941D01*
X43968672Y-125937008D01*
X43974071Y-125933186D01*
X44015558Y-125905466D01*
X44134022Y-125787002D01*
X44209280Y-125674371D01*
X61354281Y-125674371D01*
X61354281Y-125841914D01*
X61386963Y-126006217D01*
X61386965Y-126006225D01*
X61451076Y-126161003D01*
X61544154Y-126300305D01*
X61662618Y-126418769D01*
X61748615Y-126476230D01*
X61801918Y-126511846D01*
X61956699Y-126575959D01*
X62121009Y-126608642D01*
X62121013Y-126608643D01*
X62121014Y-126608643D01*
X62288549Y-126608643D01*
X62288550Y-126608642D01*
X62452863Y-126575959D01*
X62607644Y-126511846D01*
X62746943Y-126418769D01*
X62865407Y-126300305D01*
X62958484Y-126161006D01*
X63022597Y-126006225D01*
X63055281Y-125841910D01*
X63055281Y-125674376D01*
X63022597Y-125510061D01*
X62960884Y-125361073D01*
X62958485Y-125355282D01*
X62946392Y-125337184D01*
X62922499Y-125301425D01*
X62865407Y-125215980D01*
X62746943Y-125097516D01*
X62607641Y-125004438D01*
X62452863Y-124940327D01*
X62452855Y-124940325D01*
X62288552Y-124907643D01*
X62288548Y-124907643D01*
X62121014Y-124907643D01*
X62121009Y-124907643D01*
X61956706Y-124940325D01*
X61956698Y-124940327D01*
X61801920Y-125004438D01*
X61662618Y-125097516D01*
X61544154Y-125215980D01*
X61451076Y-125355282D01*
X61386965Y-125510060D01*
X61386963Y-125510068D01*
X61354281Y-125674371D01*
X44209280Y-125674371D01*
X44227099Y-125647703D01*
X44291212Y-125492922D01*
X44323896Y-125328607D01*
X44323896Y-125161073D01*
X44291212Y-124996758D01*
X44227099Y-124841977D01*
X44134022Y-124702678D01*
X44071609Y-124640265D01*
X44038126Y-124578945D01*
X44043110Y-124509253D01*
X44044699Y-124505211D01*
X44091212Y-124392922D01*
X44123896Y-124228607D01*
X44123896Y-124061073D01*
X44091212Y-123896758D01*
X44027099Y-123741977D01*
X43973396Y-123661605D01*
X43934022Y-123602677D01*
X43815558Y-123484213D01*
X43676256Y-123391135D01*
X43521478Y-123327024D01*
X43521470Y-123327022D01*
X43357167Y-123294340D01*
X43357163Y-123294340D01*
X43189629Y-123294340D01*
X43189624Y-123294340D01*
X43025321Y-123327022D01*
X43025313Y-123327024D01*
X42870536Y-123391135D01*
X42870523Y-123391142D01*
X42842285Y-123410010D01*
X42775607Y-123430887D01*
X42708228Y-123412401D01*
X42704507Y-123410010D01*
X42676268Y-123391142D01*
X42676255Y-123391135D01*
X42521478Y-123327024D01*
X42521470Y-123327022D01*
X42357167Y-123294340D01*
X42357163Y-123294340D01*
X42189629Y-123294340D01*
X42189624Y-123294340D01*
X42025321Y-123327022D01*
X42025313Y-123327024D01*
X41870535Y-123391135D01*
X41731233Y-123484213D01*
X41731230Y-123484216D01*
X41661077Y-123554370D01*
X41599754Y-123587855D01*
X41530062Y-123582871D01*
X41485715Y-123554370D01*
X41415558Y-123484213D01*
X41276256Y-123391135D01*
X41121478Y-123327024D01*
X41121470Y-123327022D01*
X40957167Y-123294340D01*
X40957163Y-123294340D01*
X40789629Y-123294340D01*
X40789624Y-123294340D01*
X40625321Y-123327022D01*
X40625313Y-123327024D01*
X40470536Y-123391135D01*
X40392286Y-123443420D01*
X40325609Y-123464297D01*
X40258229Y-123445812D01*
X40254506Y-123443420D01*
X40229358Y-123426617D01*
X40176259Y-123391137D01*
X40176256Y-123391135D01*
X40176255Y-123391135D01*
X40021478Y-123327024D01*
X40021470Y-123327022D01*
X39857167Y-123294340D01*
X39857163Y-123294340D01*
X39689629Y-123294340D01*
X39689624Y-123294340D01*
X39525321Y-123327022D01*
X39525313Y-123327024D01*
X39370535Y-123391135D01*
X39231233Y-123484213D01*
X39112769Y-123602677D01*
X39019691Y-123741979D01*
X38955580Y-123896757D01*
X38955578Y-123896765D01*
X38922896Y-124061068D01*
X38922896Y-124228611D01*
X38955578Y-124392914D01*
X38955580Y-124392922D01*
X39019691Y-124547700D01*
X39063618Y-124613441D01*
X39084496Y-124680119D01*
X39066011Y-124747499D01*
X39035191Y-124779448D01*
X39035936Y-124780356D01*
X39031227Y-124784220D01*
X38912772Y-124902674D01*
X38912769Y-124902677D01*
X38819691Y-125041979D01*
X38755580Y-125196757D01*
X38755578Y-125196765D01*
X38722896Y-125361068D01*
X38722896Y-125528611D01*
X38755578Y-125692914D01*
X38755580Y-125692922D01*
X38819691Y-125847700D01*
X38819692Y-125847702D01*
X38819693Y-125847703D01*
X38859259Y-125906918D01*
X38862511Y-125911784D01*
X38883389Y-125978462D01*
X38864904Y-126045842D01*
X38847091Y-126068355D01*
X38812769Y-126102677D01*
X38719691Y-126241979D01*
X38655580Y-126396757D01*
X38655578Y-126396765D01*
X38622896Y-126561068D01*
X37729194Y-126561068D01*
X37729194Y-119760767D01*
X37748879Y-119693728D01*
X37801683Y-119647973D01*
X37870841Y-119638029D01*
X37934397Y-119667054D01*
X37970236Y-119719812D01*
X37999999Y-119804870D01*
X38146191Y-120108440D01*
X38325461Y-120393747D01*
X38484397Y-120593048D01*
X39553340Y-119524105D01*
X39631864Y-119632184D01*
X39798816Y-119799136D01*
X39906893Y-119877658D01*
X38837950Y-120946601D01*
X39037252Y-121105538D01*
X39322559Y-121284808D01*
X39626137Y-121431004D01*
X39944173Y-121542290D01*
X39944185Y-121542294D01*
X40272686Y-121617272D01*
X40272702Y-121617274D01*
X40607519Y-121654999D01*
X40607521Y-121655000D01*
X40944479Y-121655000D01*
X40944480Y-121654999D01*
X41279297Y-121617274D01*
X41279313Y-121617272D01*
X41607814Y-121542294D01*
X41607826Y-121542290D01*
X41925862Y-121431004D01*
X42229440Y-121284808D01*
X42514747Y-121105538D01*
X42714048Y-120946600D01*
X41645106Y-119877658D01*
X41753184Y-119799136D01*
X41920136Y-119632184D01*
X41998658Y-119524106D01*
X43067600Y-120593048D01*
X43226538Y-120393747D01*
X43405808Y-120108440D01*
X43552004Y-119804862D01*
X43642629Y-119545874D01*
X100604177Y-119545874D01*
X100604177Y-119777335D01*
X100640386Y-120005949D01*
X100711909Y-120226078D01*
X100711910Y-120226081D01*
X100767941Y-120336046D01*
X100792927Y-120385084D01*
X100816995Y-120432318D01*
X100953036Y-120619564D01*
X100953040Y-120619569D01*
X101116712Y-120783241D01*
X101182841Y-120831287D01*
X101225506Y-120886617D01*
X101231485Y-120956231D01*
X101198879Y-121018026D01*
X101182841Y-121031923D01*
X101116712Y-121079968D01*
X100953040Y-121243640D01*
X100953036Y-121243645D01*
X100816995Y-121430891D01*
X100711910Y-121637128D01*
X100711909Y-121637131D01*
X100640386Y-121857260D01*
X100640386Y-121857262D01*
X100604177Y-122085874D01*
X100604177Y-122317336D01*
X100615913Y-122391432D01*
X100640386Y-122545949D01*
X100711909Y-122766078D01*
X100711910Y-122766081D01*
X100766921Y-122874044D01*
X100804442Y-122947683D01*
X100816995Y-122972318D01*
X100953036Y-123159564D01*
X100953040Y-123159569D01*
X101116712Y-123323241D01*
X101182841Y-123371287D01*
X101225506Y-123426617D01*
X101231485Y-123496231D01*
X101198879Y-123558026D01*
X101182841Y-123571923D01*
X101116712Y-123619968D01*
X100953040Y-123783640D01*
X100953036Y-123783645D01*
X100816995Y-123970891D01*
X100711910Y-124177128D01*
X100711909Y-124177131D01*
X100640386Y-124397260D01*
X100640386Y-124397262D01*
X100604177Y-124625874D01*
X100604177Y-124857336D01*
X100617321Y-124940325D01*
X100640386Y-125085949D01*
X100711909Y-125306078D01*
X100711910Y-125306081D01*
X100740160Y-125361523D01*
X100815848Y-125510068D01*
X100816995Y-125512318D01*
X100953036Y-125699564D01*
X100953040Y-125699569D01*
X101007237Y-125753766D01*
X101040722Y-125815089D01*
X101035738Y-125884781D01*
X100997244Y-125938094D01*
X100849736Y-126056664D01*
X100733833Y-126200854D01*
X100651641Y-126366581D01*
X100651640Y-126366583D01*
X100606994Y-126546105D01*
X100604177Y-126587653D01*
X100604177Y-127975556D01*
X100606994Y-128017104D01*
X100651640Y-128196626D01*
X100651641Y-128196628D01*
X100733833Y-128362355D01*
X100733834Y-128362356D01*
X100733835Y-128362358D01*
X100760462Y-128395483D01*
X100849736Y-128506545D01*
X100887853Y-128537184D01*
X100993924Y-128622447D01*
X101159656Y-128704642D01*
X101339178Y-128749287D01*
X101339179Y-128749287D01*
X101339182Y-128749288D01*
X101380723Y-128752105D01*
X101380725Y-128752105D01*
X103218629Y-128752105D01*
X103218631Y-128752105D01*
X103260172Y-128749288D01*
X103439698Y-128704642D01*
X103605430Y-128622447D01*
X103749617Y-128506545D01*
X103865519Y-128362358D01*
X103947714Y-128196626D01*
X103992360Y-128017100D01*
X103995177Y-127975559D01*
X103995177Y-127843193D01*
X124202827Y-127843193D01*
X124202827Y-128010736D01*
X124235509Y-128175039D01*
X124235511Y-128175047D01*
X124299622Y-128329825D01*
X124392700Y-128469127D01*
X124511164Y-128587591D01*
X124563330Y-128622447D01*
X124650464Y-128680668D01*
X124650465Y-128680668D01*
X124650466Y-128680669D01*
X124662547Y-128685673D01*
X124805245Y-128744781D01*
X124969555Y-128777464D01*
X124969559Y-128777465D01*
X124969560Y-128777465D01*
X125137095Y-128777465D01*
X125137096Y-128777464D01*
X125301409Y-128744781D01*
X125456190Y-128680668D01*
X125457100Y-128680059D01*
X125457650Y-128679887D01*
X125461557Y-128677799D01*
X125461952Y-128678539D01*
X125523770Y-128659173D01*
X125591153Y-128677648D01*
X125613683Y-128695472D01*
X125633837Y-128715626D01*
X125688432Y-128752105D01*
X125773137Y-128808703D01*
X125773138Y-128808703D01*
X125773139Y-128808704D01*
X125808201Y-128823227D01*
X125927918Y-128872816D01*
X126087206Y-128904500D01*
X126092228Y-128905499D01*
X126092232Y-128905500D01*
X126092233Y-128905500D01*
X126259768Y-128905500D01*
X126259769Y-128905499D01*
X126424082Y-128872816D01*
X126578863Y-128808703D01*
X126718162Y-128715626D01*
X126836626Y-128597162D01*
X126929703Y-128457863D01*
X126993816Y-128303082D01*
X127026500Y-128138767D01*
X127026500Y-127971233D01*
X126993816Y-127806918D01*
X126929703Y-127652137D01*
X126869914Y-127562657D01*
X126836623Y-127512833D01*
X126834070Y-127509722D01*
X126806759Y-127445411D01*
X126818553Y-127376544D01*
X126826821Y-127362175D01*
X126829703Y-127357863D01*
X126893816Y-127203082D01*
X126926500Y-127038767D01*
X126926500Y-126871233D01*
X126893816Y-126706918D01*
X126839571Y-126575960D01*
X126829704Y-126552139D01*
X126825672Y-126546105D01*
X126798537Y-126505494D01*
X126736626Y-126412837D01*
X126618162Y-126294373D01*
X126478860Y-126201295D01*
X126324082Y-126137184D01*
X126324074Y-126137182D01*
X126159771Y-126104500D01*
X126159767Y-126104500D01*
X125992233Y-126104500D01*
X125992228Y-126104500D01*
X125827925Y-126137182D01*
X125827917Y-126137184D01*
X125673139Y-126201295D01*
X125533837Y-126294373D01*
X125415373Y-126412837D01*
X125322295Y-126552139D01*
X125258184Y-126706917D01*
X125258182Y-126706925D01*
X125225500Y-126871228D01*
X125225500Y-126952465D01*
X125205815Y-127019504D01*
X125153011Y-127065259D01*
X125101500Y-127076465D01*
X124969555Y-127076465D01*
X124805252Y-127109147D01*
X124805244Y-127109149D01*
X124650466Y-127173260D01*
X124511164Y-127266338D01*
X124392700Y-127384802D01*
X124299622Y-127524104D01*
X124235511Y-127678882D01*
X124235509Y-127678890D01*
X124202827Y-127843193D01*
X103995177Y-127843193D01*
X103995177Y-126587651D01*
X103992360Y-126546110D01*
X103947714Y-126366584D01*
X103865519Y-126200852D01*
X103749617Y-126056665D01*
X103605430Y-125940763D01*
X103605428Y-125940762D01*
X103602109Y-125938094D01*
X103562191Y-125880751D01*
X103559611Y-125810929D01*
X103592115Y-125753767D01*
X103646312Y-125699571D01*
X103782361Y-125512315D01*
X103887443Y-125306081D01*
X103958968Y-125085948D01*
X103995177Y-124857336D01*
X103995177Y-124625874D01*
X103958968Y-124397262D01*
X103923205Y-124287195D01*
X103887444Y-124177131D01*
X103887443Y-124177128D01*
X103828309Y-124061073D01*
X103782361Y-123970895D01*
X103728503Y-123896765D01*
X103646317Y-123783645D01*
X103646313Y-123783640D01*
X103482641Y-123619968D01*
X103482636Y-123619964D01*
X103416513Y-123571923D01*
X103373847Y-123516593D01*
X103367868Y-123446980D01*
X103400473Y-123385185D01*
X103416513Y-123371287D01*
X103477435Y-123327024D01*
X103482643Y-123323240D01*
X103646312Y-123159571D01*
X103782361Y-122972315D01*
X103887443Y-122766081D01*
X103958968Y-122545948D01*
X103995177Y-122317336D01*
X103995177Y-122085874D01*
X103958968Y-121857262D01*
X103893250Y-121655000D01*
X103887444Y-121637131D01*
X103887443Y-121637128D01*
X103834706Y-121533627D01*
X103782361Y-121430895D01*
X103669929Y-121276145D01*
X103646317Y-121243645D01*
X103646313Y-121243640D01*
X103482641Y-121079968D01*
X103482636Y-121079964D01*
X103416513Y-121031923D01*
X103399334Y-121009645D01*
X103379728Y-120989471D01*
X103378284Y-120982347D01*
X103373847Y-120976593D01*
X103371439Y-120948565D01*
X103365853Y-120920993D01*
X103368470Y-120914269D01*
X111705500Y-120914269D01*
X111705500Y-121595730D01*
X111741709Y-121824344D01*
X111813232Y-122044473D01*
X111813233Y-122044476D01*
X111918318Y-122250713D01*
X112054359Y-122437959D01*
X112054363Y-122437964D01*
X112218035Y-122601636D01*
X112218040Y-122601640D01*
X112381366Y-122720302D01*
X112405290Y-122737684D01*
X112524622Y-122798487D01*
X112611523Y-122842766D01*
X112611526Y-122842767D01*
X112721590Y-122878528D01*
X112831657Y-122914291D01*
X113060269Y-122950500D01*
X113060270Y-122950500D01*
X113291730Y-122950500D01*
X113291731Y-122950500D01*
X113520343Y-122914291D01*
X113740476Y-122842766D01*
X113946710Y-122737684D01*
X114133966Y-122601635D01*
X114188162Y-122547438D01*
X114249483Y-122513954D01*
X114319175Y-122518938D01*
X114372489Y-122557432D01*
X114375157Y-122560751D01*
X114375158Y-122560753D01*
X114491060Y-122704940D01*
X114635247Y-122820842D01*
X114800979Y-122903037D01*
X114980501Y-122947682D01*
X114980502Y-122947682D01*
X114980505Y-122947683D01*
X115022046Y-122950500D01*
X115022048Y-122950500D01*
X116409952Y-122950500D01*
X116409954Y-122950500D01*
X116451495Y-122947683D01*
X116631021Y-122903037D01*
X116796753Y-122820842D01*
X116940940Y-122704940D01*
X117056842Y-122560753D01*
X117139037Y-122395021D01*
X117183683Y-122215495D01*
X117186500Y-122173954D01*
X117186500Y-120893186D01*
X123938898Y-120893186D01*
X123938898Y-120976007D01*
X124766189Y-120976007D01*
X124754446Y-120996346D01*
X124713898Y-121147674D01*
X124713898Y-121304340D01*
X124754446Y-121455668D01*
X124766189Y-121476007D01*
X123938898Y-121476007D01*
X123938898Y-121558827D01*
X123972632Y-121771816D01*
X124039270Y-121976908D01*
X124137169Y-122169043D01*
X124263923Y-122343503D01*
X124263923Y-122343504D01*
X124416400Y-122495981D01*
X124590861Y-122622735D01*
X124782996Y-122720634D01*
X124988088Y-122787273D01*
X125058898Y-122798488D01*
X125058898Y-121768716D01*
X125079237Y-121780459D01*
X125230565Y-121821007D01*
X125387231Y-121821007D01*
X125538559Y-121780459D01*
X125558898Y-121768716D01*
X125558898Y-122798487D01*
X125629707Y-122787273D01*
X125834799Y-122720634D01*
X126026934Y-122622735D01*
X126201391Y-122495984D01*
X126272458Y-122424917D01*
X126333781Y-122391432D01*
X126403473Y-122396416D01*
X126459407Y-122438287D01*
X126471228Y-122457504D01*
X126508054Y-122531757D01*
X126508055Y-122531758D01*
X126508056Y-122531760D01*
X126541843Y-122573792D01*
X126623957Y-122675947D01*
X126700758Y-122737681D01*
X126768145Y-122791849D01*
X126933877Y-122874044D01*
X127113399Y-122918689D01*
X127113400Y-122918689D01*
X127113403Y-122918690D01*
X127154944Y-122921507D01*
X127154946Y-122921507D01*
X128542850Y-122921507D01*
X128542852Y-122921507D01*
X128584393Y-122918690D01*
X128763919Y-122874044D01*
X128929651Y-122791849D01*
X129073838Y-122675947D01*
X129189740Y-122531760D01*
X129271935Y-122366028D01*
X129316581Y-122186502D01*
X129319398Y-122144961D01*
X129319398Y-120307053D01*
X129316581Y-120265512D01*
X129271935Y-120085986D01*
X129189740Y-119920254D01*
X129116611Y-119829278D01*
X129073838Y-119776066D01*
X128971405Y-119693728D01*
X128929651Y-119660165D01*
X128929649Y-119660164D01*
X128929648Y-119660163D01*
X128763921Y-119577971D01*
X128763919Y-119577970D01*
X128584395Y-119533324D01*
X128584399Y-119533324D01*
X128553237Y-119531211D01*
X128542852Y-119530507D01*
X127154944Y-119530507D01*
X127143075Y-119531311D01*
X127113398Y-119533324D01*
X126933876Y-119577970D01*
X126933874Y-119577971D01*
X126768147Y-119660163D01*
X126623957Y-119776066D01*
X126508055Y-119920254D01*
X126471228Y-119994510D01*
X126423807Y-120045823D01*
X126356171Y-120063351D01*
X126289796Y-120041531D01*
X126272459Y-120027096D01*
X126201395Y-119956032D01*
X126026934Y-119829278D01*
X125834797Y-119731379D01*
X125629703Y-119664740D01*
X125558898Y-119653525D01*
X125558898Y-120683297D01*
X125538559Y-120671555D01*
X125387231Y-120631007D01*
X125230565Y-120631007D01*
X125079237Y-120671555D01*
X125058898Y-120683297D01*
X125058898Y-119653525D01*
X125058897Y-119653525D01*
X124988092Y-119664740D01*
X124782998Y-119731379D01*
X124590861Y-119829278D01*
X124416401Y-119956032D01*
X124416400Y-119956032D01*
X124263923Y-120108509D01*
X124263923Y-120108510D01*
X124137169Y-120282970D01*
X124039270Y-120475105D01*
X123972632Y-120680197D01*
X123938898Y-120893186D01*
X117186500Y-120893186D01*
X117186500Y-120336046D01*
X117183683Y-120294505D01*
X117180814Y-120282970D01*
X117166666Y-120226078D01*
X117139037Y-120114979D01*
X117056842Y-119949247D01*
X116998193Y-119876285D01*
X116940940Y-119805059D01*
X116802438Y-119693728D01*
X116796753Y-119689158D01*
X116796751Y-119689157D01*
X116796750Y-119689156D01*
X116631023Y-119606964D01*
X116631021Y-119606963D01*
X116451497Y-119562317D01*
X116451501Y-119562317D01*
X116420339Y-119560204D01*
X116409954Y-119559500D01*
X115022046Y-119559500D01*
X115010177Y-119560304D01*
X114980500Y-119562317D01*
X114800978Y-119606963D01*
X114800976Y-119606964D01*
X114635249Y-119689156D01*
X114491059Y-119805059D01*
X114372489Y-119952567D01*
X114315145Y-119992485D01*
X114245323Y-119995065D01*
X114188161Y-119962560D01*
X114133964Y-119908363D01*
X114133959Y-119908359D01*
X113946713Y-119772318D01*
X113946712Y-119772317D01*
X113946710Y-119772316D01*
X113843666Y-119719812D01*
X113740476Y-119667233D01*
X113740473Y-119667232D01*
X113520344Y-119595709D01*
X113406037Y-119577604D01*
X113291731Y-119559500D01*
X113060269Y-119559500D01*
X112984065Y-119571569D01*
X112831655Y-119595709D01*
X112611526Y-119667232D01*
X112611523Y-119667233D01*
X112405286Y-119772318D01*
X112218040Y-119908359D01*
X112218035Y-119908363D01*
X112054363Y-120072035D01*
X112054359Y-120072040D01*
X111918318Y-120259286D01*
X111813233Y-120465523D01*
X111813232Y-120465526D01*
X111741709Y-120685655D01*
X111705500Y-120914269D01*
X103368470Y-120914269D01*
X103368489Y-120914220D01*
X103367868Y-120906980D01*
X103380994Y-120882101D01*
X103391202Y-120855884D01*
X103398643Y-120848652D01*
X103400473Y-120845185D01*
X103416513Y-120831287D01*
X103447080Y-120809079D01*
X103482636Y-120783245D01*
X103482634Y-120783245D01*
X103482643Y-120783240D01*
X103646312Y-120619571D01*
X103782361Y-120432315D01*
X103887443Y-120226081D01*
X103958968Y-120005948D01*
X103995177Y-119777336D01*
X103995177Y-119545874D01*
X103958968Y-119317262D01*
X103887443Y-119097129D01*
X103887443Y-119097128D01*
X103836724Y-118997588D01*
X103782361Y-118890895D01*
X103690450Y-118764390D01*
X103646317Y-118703645D01*
X103646313Y-118703640D01*
X103482641Y-118539968D01*
X103482636Y-118539964D01*
X103295390Y-118403923D01*
X103295389Y-118403922D01*
X103295387Y-118403921D01*
X103229315Y-118370255D01*
X103089153Y-118298838D01*
X103089150Y-118298837D01*
X102869021Y-118227314D01*
X102754714Y-118209209D01*
X102640408Y-118191105D01*
X101958946Y-118191105D01*
X101882742Y-118203174D01*
X101730332Y-118227314D01*
X101510203Y-118298837D01*
X101510200Y-118298838D01*
X101303963Y-118403923D01*
X101116717Y-118539964D01*
X101116712Y-118539968D01*
X100953040Y-118703640D01*
X100953036Y-118703645D01*
X100816995Y-118890891D01*
X100711910Y-119097128D01*
X100711909Y-119097131D01*
X100640386Y-119317260D01*
X100604177Y-119545874D01*
X43642629Y-119545874D01*
X43658665Y-119500047D01*
X43663292Y-119486822D01*
X43663294Y-119486814D01*
X43738272Y-119158313D01*
X43738274Y-119158297D01*
X43775999Y-118823480D01*
X43776000Y-118823478D01*
X43776000Y-118486521D01*
X43775999Y-118486519D01*
X43738274Y-118151702D01*
X43738272Y-118151686D01*
X43663294Y-117823185D01*
X43663290Y-117823173D01*
X43552004Y-117505137D01*
X43405808Y-117201559D01*
X43226538Y-116916252D01*
X43067601Y-116716950D01*
X41998658Y-117785893D01*
X41920136Y-117677816D01*
X41753184Y-117510864D01*
X41645104Y-117432340D01*
X42714048Y-116363397D01*
X42514747Y-116204461D01*
X42229440Y-116025191D01*
X42037084Y-115932557D01*
X41985225Y-115885734D01*
X41966912Y-115818307D01*
X41987960Y-115751683D01*
X42041686Y-115707015D01*
X42090886Y-115696837D01*
X133345819Y-115696837D01*
X133412858Y-115716522D01*
G37*
%TD.AperFunction*%
%TA.AperFunction,Conductor*%
G36*
X136967600Y-144493048D02*
G01*
X137126538Y-144293747D01*
X137305808Y-144008440D01*
X137392474Y-143828478D01*
X137439296Y-143776619D01*
X137506724Y-143758306D01*
X137573347Y-143779354D01*
X137618016Y-143833080D01*
X137628194Y-143882280D01*
X137628194Y-145471837D01*
X137608509Y-145538876D01*
X137555705Y-145584631D01*
X137504194Y-145595837D01*
X135798826Y-145595837D01*
X135731787Y-145576152D01*
X135686032Y-145523348D01*
X135676088Y-145454190D01*
X135705113Y-145390634D01*
X135757871Y-145354796D01*
X135825862Y-145331004D01*
X136129440Y-145184808D01*
X136414747Y-145005538D01*
X136614048Y-144846600D01*
X135545106Y-143777658D01*
X135653184Y-143699136D01*
X135820136Y-143532184D01*
X135898658Y-143424106D01*
X136967600Y-144493048D01*
G37*
%TD.AperFunction*%
%TA.AperFunction,Conductor*%
G36*
X39528153Y-115716522D02*
G01*
X39573908Y-115769326D01*
X39583852Y-115838484D01*
X39554827Y-115902040D01*
X39514916Y-115932557D01*
X39322559Y-116025191D01*
X39037252Y-116204461D01*
X38837950Y-116363397D01*
X39906893Y-117432340D01*
X39798816Y-117510864D01*
X39631864Y-117677816D01*
X39553340Y-117785893D01*
X38484397Y-116716950D01*
X38325461Y-116916252D01*
X38146191Y-117201559D01*
X37999995Y-117505137D01*
X37970235Y-117590187D01*
X37929514Y-117646963D01*
X37864561Y-117672710D01*
X37795999Y-117659254D01*
X37745596Y-117610866D01*
X37729194Y-117549232D01*
X37729194Y-115820837D01*
X37748879Y-115753798D01*
X37801683Y-115708043D01*
X37853194Y-115696837D01*
X39461114Y-115696837D01*
X39528153Y-115716522D01*
G37*
%TD.AperFunction*%
%TA.AperFunction,Conductor*%
G36*
X137571233Y-115716522D02*
G01*
X137616988Y-115769326D01*
X137628194Y-115820837D01*
X137628194Y-117313462D01*
X137608509Y-117380501D01*
X137555705Y-117426256D01*
X137486547Y-117436200D01*
X137422991Y-117407175D01*
X137392474Y-117367264D01*
X137308502Y-117192896D01*
X137129232Y-116907589D01*
X136970295Y-116708287D01*
X135901352Y-117777230D01*
X135822830Y-117669153D01*
X135655878Y-117502201D01*
X135547798Y-117423677D01*
X136616742Y-116354734D01*
X136417441Y-116195798D01*
X136132134Y-116016528D01*
X135957767Y-115932557D01*
X135905908Y-115885734D01*
X135887595Y-115818307D01*
X135908643Y-115751683D01*
X135962369Y-115707015D01*
X136011569Y-115696837D01*
X137504194Y-115696837D01*
X137571233Y-115716522D01*
G37*
%TD.AperFunction*%
%TD*%
M02*
