%TF.GenerationSoftware,KiCad,Pcbnew,9.0.5*%
%TF.CreationDate,2026-03-07T21:07:16-03:00*%
%TF.ProjectId,Ponte,506f6e74-652e-46b6-9963-61645f706362,rev?*%
%TF.SameCoordinates,Original*%
%TF.FileFunction,Copper,L1,Top*%
%TF.FilePolarity,Positive*%
%FSLAX46Y46*%
G04 Gerber Fmt 4.6, Leading zero omitted, Abs format (unit mm)*
G04 Created by KiCad (PCBNEW 9.0.5) date 2026-03-07 21:07:16*
%MOMM*%
%LPD*%
G01*
G04 APERTURE LIST*
G04 Aperture macros list*
%AMRoundRect*
0 Rectangle with rounded corners*
0 $1 Rounding radius*
0 $2 $3 $4 $5 $6 $7 $8 $9 X,Y pos of 4 corners*
0 Add a 4 corners polygon primitive as box body*
4,1,4,$2,$3,$4,$5,$6,$7,$8,$9,$2,$3,0*
0 Add four circle primitives for the rounded corners*
1,1,$1+$1,$2,$3*
1,1,$1+$1,$4,$5*
1,1,$1+$1,$6,$7*
1,1,$1+$1,$8,$9*
0 Add four rect primitives between the rounded corners*
20,1,$1+$1,$2,$3,$4,$5,0*
20,1,$1+$1,$4,$5,$6,$7,0*
20,1,$1+$1,$6,$7,$8,$9,0*
20,1,$1+$1,$8,$9,$2,$3,0*%
G04 Aperture macros list end*
%ADD10C,0.150000*%
%TA.AperFunction,NonConductor*%
%ADD11C,0.150000*%
%TD*%
%TA.AperFunction,SMDPad,CuDef*%
%ADD12R,4.900000X1.600000*%
%TD*%
%TA.AperFunction,SMDPad,CuDef*%
%ADD13R,5.600000X1.500000*%
%TD*%
%TA.AperFunction,ComponentPad*%
%ADD14C,5.000000*%
%TD*%
%TA.AperFunction,SMDPad,CuDef*%
%ADD15RoundRect,0.250000X0.350000X0.450000X-0.350000X0.450000X-0.350000X-0.450000X0.350000X-0.450000X0*%
%TD*%
%TA.AperFunction,SMDPad,CuDef*%
%ADD16RoundRect,0.250000X-0.450000X0.350000X-0.450000X-0.350000X0.450000X-0.350000X0.450000X0.350000X0*%
%TD*%
%TA.AperFunction,SMDPad,CuDef*%
%ADD17RoundRect,0.250000X0.450000X-0.350000X0.450000X0.350000X-0.450000X0.350000X-0.450000X-0.350000X0*%
%TD*%
%TA.AperFunction,SMDPad,CuDef*%
%ADD18RoundRect,0.250000X-0.475000X0.337500X-0.475000X-0.337500X0.475000X-0.337500X0.475000X0.337500X0*%
%TD*%
%TA.AperFunction,SMDPad,CuDef*%
%ADD19RoundRect,0.250000X0.337500X0.475000X-0.337500X0.475000X-0.337500X-0.475000X0.337500X-0.475000X0*%
%TD*%
%TA.AperFunction,SMDPad,CuDef*%
%ADD20RoundRect,0.125000X-0.687500X-0.125000X0.687500X-0.125000X0.687500X0.125000X-0.687500X0.125000X0*%
%TD*%
%TA.AperFunction,SMDPad,CuDef*%
%ADD21RoundRect,0.250000X-0.337500X-0.475000X0.337500X-0.475000X0.337500X0.475000X-0.337500X0.475000X0*%
%TD*%
%TA.AperFunction,ComponentPad*%
%ADD22RoundRect,0.250000X0.845000X-0.620000X0.845000X0.620000X-0.845000X0.620000X-0.845000X-0.620000X0*%
%TD*%
%TA.AperFunction,ComponentPad*%
%ADD23O,2.190000X1.740000*%
%TD*%
%TA.AperFunction,SMDPad,CuDef*%
%ADD24R,0.900000X0.800000*%
%TD*%
%TA.AperFunction,SMDPad,CuDef*%
%ADD25RoundRect,0.150000X-0.825000X-0.150000X0.825000X-0.150000X0.825000X0.150000X-0.825000X0.150000X0*%
%TD*%
%TA.AperFunction,ComponentPad*%
%ADD26RoundRect,0.250000X0.620000X0.845000X-0.620000X0.845000X-0.620000X-0.845000X0.620000X-0.845000X0*%
%TD*%
%TA.AperFunction,ComponentPad*%
%ADD27O,1.740000X2.190000*%
%TD*%
%TA.AperFunction,ComponentPad*%
%ADD28C,1.440000*%
%TD*%
%TA.AperFunction,SMDPad,CuDef*%
%ADD29RoundRect,0.150000X-0.150000X0.825000X-0.150000X-0.825000X0.150000X-0.825000X0.150000X0.825000X0*%
%TD*%
%TA.AperFunction,SMDPad,CuDef*%
%ADD30RoundRect,0.250000X-0.550000X1.712500X-0.550000X-1.712500X0.550000X-1.712500X0.550000X1.712500X0*%
%TD*%
%TA.AperFunction,SMDPad,CuDef*%
%ADD31RoundRect,0.250000X-0.350000X-0.450000X0.350000X-0.450000X0.350000X0.450000X-0.350000X0.450000X0*%
%TD*%
%TA.AperFunction,SMDPad,CuDef*%
%ADD32RoundRect,0.250000X-0.262500X-0.450000X0.262500X-0.450000X0.262500X0.450000X-0.262500X0.450000X0*%
%TD*%
%TA.AperFunction,SMDPad,CuDef*%
%ADD33RoundRect,0.250000X-0.475000X0.250000X-0.475000X-0.250000X0.475000X-0.250000X0.475000X0.250000X0*%
%TD*%
%TA.AperFunction,SMDPad,CuDef*%
%ADD34RoundRect,0.150000X-0.512500X-0.150000X0.512500X-0.150000X0.512500X0.150000X-0.512500X0.150000X0*%
%TD*%
%TA.AperFunction,SMDPad,CuDef*%
%ADD35RoundRect,0.250000X-0.300000X0.300000X-0.300000X-0.300000X0.300000X-0.300000X0.300000X0.300000X0*%
%TD*%
%TA.AperFunction,SMDPad,CuDef*%
%ADD36RoundRect,0.250000X0.475000X-0.337500X0.475000X0.337500X-0.475000X0.337500X-0.475000X-0.337500X0*%
%TD*%
%TA.AperFunction,SMDPad,CuDef*%
%ADD37RoundRect,0.243750X-0.456250X0.243750X-0.456250X-0.243750X0.456250X-0.243750X0.456250X0.243750X0*%
%TD*%
%TA.AperFunction,SMDPad,CuDef*%
%ADD38RoundRect,0.249999X0.450001X1.425001X-0.450001X1.425001X-0.450001X-1.425001X0.450001X-1.425001X0*%
%TD*%
%TA.AperFunction,SMDPad,CuDef*%
%ADD39RoundRect,0.175000X-0.325000X0.175000X-0.325000X-0.175000X0.325000X-0.175000X0.325000X0.175000X0*%
%TD*%
%TA.AperFunction,SMDPad,CuDef*%
%ADD40RoundRect,0.150000X-0.150000X0.200000X-0.150000X-0.200000X0.150000X-0.200000X0.150000X0.200000X0*%
%TD*%
%TA.AperFunction,ViaPad*%
%ADD41C,0.500000*%
%TD*%
%TA.AperFunction,ViaPad*%
%ADD42C,1.000000*%
%TD*%
%TA.AperFunction,Conductor*%
%ADD43C,0.300000*%
%TD*%
%TA.AperFunction,Conductor*%
%ADD44C,0.750000*%
%TD*%
%TA.AperFunction,Conductor*%
%ADD45C,0.500000*%
%TD*%
G04 APERTURE END LIST*
D10*
D11*
X209812779Y-150690132D02*
X209812779Y-149790132D01*
X209812779Y-149790132D02*
X210146112Y-150432989D01*
X210146112Y-150432989D02*
X210479445Y-149790132D01*
X210479445Y-149790132D02*
X210479445Y-150690132D01*
X211336588Y-150647275D02*
X211241350Y-150690132D01*
X211241350Y-150690132D02*
X211050874Y-150690132D01*
X211050874Y-150690132D02*
X210955636Y-150647275D01*
X210955636Y-150647275D02*
X210908017Y-150561560D01*
X210908017Y-150561560D02*
X210908017Y-150218703D01*
X210908017Y-150218703D02*
X210955636Y-150132989D01*
X210955636Y-150132989D02*
X211050874Y-150090132D01*
X211050874Y-150090132D02*
X211241350Y-150090132D01*
X211241350Y-150090132D02*
X211336588Y-150132989D01*
X211336588Y-150132989D02*
X211384207Y-150218703D01*
X211384207Y-150218703D02*
X211384207Y-150304417D01*
X211384207Y-150304417D02*
X210908017Y-150390132D01*
X212241350Y-150690132D02*
X212241350Y-149790132D01*
X212241350Y-150647275D02*
X212146112Y-150690132D01*
X212146112Y-150690132D02*
X211955636Y-150690132D01*
X211955636Y-150690132D02*
X211860398Y-150647275D01*
X211860398Y-150647275D02*
X211812779Y-150604417D01*
X211812779Y-150604417D02*
X211765160Y-150518703D01*
X211765160Y-150518703D02*
X211765160Y-150261560D01*
X211765160Y-150261560D02*
X211812779Y-150175846D01*
X211812779Y-150175846D02*
X211860398Y-150132989D01*
X211860398Y-150132989D02*
X211955636Y-150090132D01*
X211955636Y-150090132D02*
X212146112Y-150090132D01*
X212146112Y-150090132D02*
X212241350Y-150132989D01*
X212717541Y-150690132D02*
X212717541Y-150090132D01*
X212717541Y-149790132D02*
X212669922Y-149832989D01*
X212669922Y-149832989D02*
X212717541Y-149875846D01*
X212717541Y-149875846D02*
X212765160Y-149832989D01*
X212765160Y-149832989D02*
X212717541Y-149790132D01*
X212717541Y-149790132D02*
X212717541Y-149875846D01*
X213622302Y-150647275D02*
X213527064Y-150690132D01*
X213527064Y-150690132D02*
X213336588Y-150690132D01*
X213336588Y-150690132D02*
X213241350Y-150647275D01*
X213241350Y-150647275D02*
X213193731Y-150604417D01*
X213193731Y-150604417D02*
X213146112Y-150518703D01*
X213146112Y-150518703D02*
X213146112Y-150261560D01*
X213146112Y-150261560D02*
X213193731Y-150175846D01*
X213193731Y-150175846D02*
X213241350Y-150132989D01*
X213241350Y-150132989D02*
X213336588Y-150090132D01*
X213336588Y-150090132D02*
X213527064Y-150090132D01*
X213527064Y-150090132D02*
X213622302Y-150132989D01*
X213431826Y-150732989D02*
X213527064Y-150775846D01*
X213527064Y-150775846D02*
X213574683Y-150861560D01*
X213574683Y-150861560D02*
X213527064Y-150947275D01*
X213527064Y-150947275D02*
X213431826Y-150990132D01*
X213431826Y-150990132D02*
X213288969Y-150990132D01*
X214479445Y-150690132D02*
X214479445Y-150218703D01*
X214479445Y-150218703D02*
X214431826Y-150132989D01*
X214431826Y-150132989D02*
X214336588Y-150090132D01*
X214336588Y-150090132D02*
X214146112Y-150090132D01*
X214146112Y-150090132D02*
X214050874Y-150132989D01*
X214479445Y-150647275D02*
X214384207Y-150690132D01*
X214384207Y-150690132D02*
X214146112Y-150690132D01*
X214146112Y-150690132D02*
X214050874Y-150647275D01*
X214050874Y-150647275D02*
X214003255Y-150561560D01*
X214003255Y-150561560D02*
X214003255Y-150475846D01*
X214003255Y-150475846D02*
X214050874Y-150390132D01*
X214050874Y-150390132D02*
X214146112Y-150347275D01*
X214146112Y-150347275D02*
X214384207Y-150347275D01*
X214384207Y-150347275D02*
X214479445Y-150304417D01*
X214003255Y-149875846D02*
X214050874Y-149832989D01*
X214050874Y-149832989D02*
X214146112Y-149790132D01*
X214146112Y-149790132D02*
X214336588Y-149875846D01*
X214336588Y-149875846D02*
X214431826Y-149832989D01*
X214431826Y-149832989D02*
X214479445Y-149790132D01*
X215098493Y-150690132D02*
X215003255Y-150647275D01*
X215003255Y-150647275D02*
X214955636Y-150604417D01*
X214955636Y-150604417D02*
X214908017Y-150518703D01*
X214908017Y-150518703D02*
X214908017Y-150261560D01*
X214908017Y-150261560D02*
X214955636Y-150175846D01*
X214955636Y-150175846D02*
X215003255Y-150132989D01*
X215003255Y-150132989D02*
X215098493Y-150090132D01*
X215098493Y-150090132D02*
X215241350Y-150090132D01*
X215241350Y-150090132D02*
X215336588Y-150132989D01*
X215336588Y-150132989D02*
X215384207Y-150175846D01*
X215384207Y-150175846D02*
X215431826Y-150261560D01*
X215431826Y-150261560D02*
X215431826Y-150518703D01*
X215431826Y-150518703D02*
X215384207Y-150604417D01*
X215384207Y-150604417D02*
X215336588Y-150647275D01*
X215336588Y-150647275D02*
X215241350Y-150690132D01*
X215241350Y-150690132D02*
X215098493Y-150690132D01*
X217050874Y-150690132D02*
X217050874Y-149790132D01*
X217050874Y-150647275D02*
X216955636Y-150690132D01*
X216955636Y-150690132D02*
X216765160Y-150690132D01*
X216765160Y-150690132D02*
X216669922Y-150647275D01*
X216669922Y-150647275D02*
X216622303Y-150604417D01*
X216622303Y-150604417D02*
X216574684Y-150518703D01*
X216574684Y-150518703D02*
X216574684Y-150261560D01*
X216574684Y-150261560D02*
X216622303Y-150175846D01*
X216622303Y-150175846D02*
X216669922Y-150132989D01*
X216669922Y-150132989D02*
X216765160Y-150090132D01*
X216765160Y-150090132D02*
X216955636Y-150090132D01*
X216955636Y-150090132D02*
X217050874Y-150132989D01*
X217908017Y-150647275D02*
X217812779Y-150690132D01*
X217812779Y-150690132D02*
X217622303Y-150690132D01*
X217622303Y-150690132D02*
X217527065Y-150647275D01*
X217527065Y-150647275D02*
X217479446Y-150561560D01*
X217479446Y-150561560D02*
X217479446Y-150218703D01*
X217479446Y-150218703D02*
X217527065Y-150132989D01*
X217527065Y-150132989D02*
X217622303Y-150090132D01*
X217622303Y-150090132D02*
X217812779Y-150090132D01*
X217812779Y-150090132D02*
X217908017Y-150132989D01*
X217908017Y-150132989D02*
X217955636Y-150218703D01*
X217955636Y-150218703D02*
X217955636Y-150304417D01*
X217955636Y-150304417D02*
X217479446Y-150390132D01*
X209669922Y-151539082D02*
X210050874Y-151539082D01*
X209812779Y-151239082D02*
X209812779Y-152010510D01*
X209812779Y-152010510D02*
X209860398Y-152096225D01*
X209860398Y-152096225D02*
X209955636Y-152139082D01*
X209955636Y-152139082D02*
X210050874Y-152139082D01*
X210765160Y-152096225D02*
X210669922Y-152139082D01*
X210669922Y-152139082D02*
X210479446Y-152139082D01*
X210479446Y-152139082D02*
X210384208Y-152096225D01*
X210384208Y-152096225D02*
X210336589Y-152010510D01*
X210336589Y-152010510D02*
X210336589Y-151667653D01*
X210336589Y-151667653D02*
X210384208Y-151581939D01*
X210384208Y-151581939D02*
X210479446Y-151539082D01*
X210479446Y-151539082D02*
X210669922Y-151539082D01*
X210669922Y-151539082D02*
X210765160Y-151581939D01*
X210765160Y-151581939D02*
X210812779Y-151667653D01*
X210812779Y-151667653D02*
X210812779Y-151753367D01*
X210812779Y-151753367D02*
X210336589Y-151839082D01*
X211241351Y-152139082D02*
X211241351Y-151539082D01*
X211241351Y-151624796D02*
X211288970Y-151581939D01*
X211288970Y-151581939D02*
X211384208Y-151539082D01*
X211384208Y-151539082D02*
X211527065Y-151539082D01*
X211527065Y-151539082D02*
X211622303Y-151581939D01*
X211622303Y-151581939D02*
X211669922Y-151667653D01*
X211669922Y-151667653D02*
X211669922Y-152139082D01*
X211669922Y-151667653D02*
X211717541Y-151581939D01*
X211717541Y-151581939D02*
X211812779Y-151539082D01*
X211812779Y-151539082D02*
X211955636Y-151539082D01*
X211955636Y-151539082D02*
X212050875Y-151581939D01*
X212050875Y-151581939D02*
X212098494Y-151667653D01*
X212098494Y-151667653D02*
X212098494Y-152139082D01*
X212574684Y-151539082D02*
X212574684Y-152439082D01*
X212574684Y-151581939D02*
X212669922Y-151539082D01*
X212669922Y-151539082D02*
X212860398Y-151539082D01*
X212860398Y-151539082D02*
X212955636Y-151581939D01*
X212955636Y-151581939D02*
X213003255Y-151624796D01*
X213003255Y-151624796D02*
X213050874Y-151710510D01*
X213050874Y-151710510D02*
X213050874Y-151967653D01*
X213050874Y-151967653D02*
X213003255Y-152053367D01*
X213003255Y-152053367D02*
X212955636Y-152096225D01*
X212955636Y-152096225D02*
X212860398Y-152139082D01*
X212860398Y-152139082D02*
X212669922Y-152139082D01*
X212669922Y-152139082D02*
X212574684Y-152096225D01*
X213860398Y-152096225D02*
X213765160Y-152139082D01*
X213765160Y-152139082D02*
X213574684Y-152139082D01*
X213574684Y-152139082D02*
X213479446Y-152096225D01*
X213479446Y-152096225D02*
X213431827Y-152010510D01*
X213431827Y-152010510D02*
X213431827Y-151667653D01*
X213431827Y-151667653D02*
X213479446Y-151581939D01*
X213479446Y-151581939D02*
X213574684Y-151539082D01*
X213574684Y-151539082D02*
X213765160Y-151539082D01*
X213765160Y-151539082D02*
X213860398Y-151581939D01*
X213860398Y-151581939D02*
X213908017Y-151667653D01*
X213908017Y-151667653D02*
X213908017Y-151753367D01*
X213908017Y-151753367D02*
X213431827Y-151839082D01*
X214336589Y-152139082D02*
X214336589Y-151539082D01*
X214336589Y-151710510D02*
X214384208Y-151624796D01*
X214384208Y-151624796D02*
X214431827Y-151581939D01*
X214431827Y-151581939D02*
X214527065Y-151539082D01*
X214527065Y-151539082D02*
X214622303Y-151539082D01*
X215384208Y-152139082D02*
X215384208Y-151667653D01*
X215384208Y-151667653D02*
X215336589Y-151581939D01*
X215336589Y-151581939D02*
X215241351Y-151539082D01*
X215241351Y-151539082D02*
X215050875Y-151539082D01*
X215050875Y-151539082D02*
X214955637Y-151581939D01*
X215384208Y-152096225D02*
X215288970Y-152139082D01*
X215288970Y-152139082D02*
X215050875Y-152139082D01*
X215050875Y-152139082D02*
X214955637Y-152096225D01*
X214955637Y-152096225D02*
X214908018Y-152010510D01*
X214908018Y-152010510D02*
X214908018Y-151924796D01*
X214908018Y-151924796D02*
X214955637Y-151839082D01*
X214955637Y-151839082D02*
X215050875Y-151796225D01*
X215050875Y-151796225D02*
X215288970Y-151796225D01*
X215288970Y-151796225D02*
X215384208Y-151753367D01*
X215717542Y-151539082D02*
X216098494Y-151539082D01*
X215860399Y-151239082D02*
X215860399Y-152010510D01*
X215860399Y-152010510D02*
X215908018Y-152096225D01*
X215908018Y-152096225D02*
X216003256Y-152139082D01*
X216003256Y-152139082D02*
X216098494Y-152139082D01*
X216860399Y-151539082D02*
X216860399Y-152139082D01*
X216431828Y-151539082D02*
X216431828Y-152010510D01*
X216431828Y-152010510D02*
X216479447Y-152096225D01*
X216479447Y-152096225D02*
X216574685Y-152139082D01*
X216574685Y-152139082D02*
X216717542Y-152139082D01*
X216717542Y-152139082D02*
X216812780Y-152096225D01*
X216812780Y-152096225D02*
X216860399Y-152053367D01*
X217336590Y-152139082D02*
X217336590Y-151539082D01*
X217336590Y-151710510D02*
X217384209Y-151624796D01*
X217384209Y-151624796D02*
X217431828Y-151581939D01*
X217431828Y-151581939D02*
X217527066Y-151539082D01*
X217527066Y-151539082D02*
X217622304Y-151539082D01*
X218384209Y-152139082D02*
X218384209Y-151667653D01*
X218384209Y-151667653D02*
X218336590Y-151581939D01*
X218336590Y-151581939D02*
X218241352Y-151539082D01*
X218241352Y-151539082D02*
X218050876Y-151539082D01*
X218050876Y-151539082D02*
X217955638Y-151581939D01*
X218384209Y-152096225D02*
X218288971Y-152139082D01*
X218288971Y-152139082D02*
X218050876Y-152139082D01*
X218050876Y-152139082D02*
X217955638Y-152096225D01*
X217955638Y-152096225D02*
X217908019Y-152010510D01*
X217908019Y-152010510D02*
X217908019Y-151924796D01*
X217908019Y-151924796D02*
X217955638Y-151839082D01*
X217955638Y-151839082D02*
X218050876Y-151796225D01*
X218050876Y-151796225D02*
X218288971Y-151796225D01*
X218288971Y-151796225D02*
X218384209Y-151753367D01*
X209765160Y-153330889D02*
X210241350Y-153330889D01*
X209669922Y-153588032D02*
X210003255Y-152688032D01*
X210003255Y-152688032D02*
X210336588Y-153588032D01*
X211098493Y-153588032D02*
X211098493Y-152688032D01*
X211098493Y-153545175D02*
X211003255Y-153588032D01*
X211003255Y-153588032D02*
X210812779Y-153588032D01*
X210812779Y-153588032D02*
X210717541Y-153545175D01*
X210717541Y-153545175D02*
X210669922Y-153502317D01*
X210669922Y-153502317D02*
X210622303Y-153416603D01*
X210622303Y-153416603D02*
X210622303Y-153159460D01*
X210622303Y-153159460D02*
X210669922Y-153073746D01*
X210669922Y-153073746D02*
X210717541Y-153030889D01*
X210717541Y-153030889D02*
X210812779Y-152988032D01*
X210812779Y-152988032D02*
X211003255Y-152988032D01*
X211003255Y-152988032D02*
X211098493Y-153030889D01*
X211955636Y-153545175D02*
X211860398Y-153588032D01*
X211860398Y-153588032D02*
X211669922Y-153588032D01*
X211669922Y-153588032D02*
X211574684Y-153545175D01*
X211574684Y-153545175D02*
X211527065Y-153459460D01*
X211527065Y-153459460D02*
X211527065Y-153116603D01*
X211527065Y-153116603D02*
X211574684Y-153030889D01*
X211574684Y-153030889D02*
X211669922Y-152988032D01*
X211669922Y-152988032D02*
X211860398Y-152988032D01*
X211860398Y-152988032D02*
X211955636Y-153030889D01*
X211955636Y-153030889D02*
X212003255Y-153116603D01*
X212003255Y-153116603D02*
X212003255Y-153202317D01*
X212003255Y-153202317D02*
X211527065Y-153288032D01*
X212574684Y-153588032D02*
X212479446Y-153545175D01*
X212479446Y-153545175D02*
X212431827Y-153459460D01*
X212431827Y-153459460D02*
X212431827Y-152688032D01*
X212908018Y-153545175D02*
X213003256Y-153588032D01*
X213003256Y-153588032D02*
X213193732Y-153588032D01*
X213193732Y-153588032D02*
X213288970Y-153545175D01*
X213288970Y-153545175D02*
X213336589Y-153459460D01*
X213336589Y-153459460D02*
X213336589Y-153416603D01*
X213336589Y-153416603D02*
X213288970Y-153330889D01*
X213288970Y-153330889D02*
X213193732Y-153288032D01*
X213193732Y-153288032D02*
X213050875Y-153288032D01*
X213050875Y-153288032D02*
X212955637Y-153245175D01*
X212955637Y-153245175D02*
X212908018Y-153159460D01*
X212908018Y-153159460D02*
X212908018Y-153116603D01*
X212908018Y-153116603D02*
X212955637Y-153030889D01*
X212955637Y-153030889D02*
X213050875Y-152988032D01*
X213050875Y-152988032D02*
X213193732Y-152988032D01*
X213193732Y-152988032D02*
X213288970Y-153030889D01*
X213908018Y-153588032D02*
X213812780Y-153545175D01*
X213812780Y-153545175D02*
X213765161Y-153502317D01*
X213765161Y-153502317D02*
X213717542Y-153416603D01*
X213717542Y-153416603D02*
X213717542Y-153159460D01*
X213717542Y-153159460D02*
X213765161Y-153073746D01*
X213765161Y-153073746D02*
X213812780Y-153030889D01*
X213812780Y-153030889D02*
X213908018Y-152988032D01*
X213908018Y-152988032D02*
X214050875Y-152988032D01*
X214050875Y-152988032D02*
X214146113Y-153030889D01*
X214146113Y-153030889D02*
X214193732Y-153073746D01*
X214193732Y-153073746D02*
X214241351Y-153159460D01*
X214241351Y-153159460D02*
X214241351Y-153416603D01*
X214241351Y-153416603D02*
X214193732Y-153502317D01*
X214193732Y-153502317D02*
X214146113Y-153545175D01*
X214146113Y-153545175D02*
X214050875Y-153588032D01*
X214050875Y-153588032D02*
X213908018Y-153588032D01*
X214669923Y-152988032D02*
X214669923Y-153588032D01*
X214669923Y-153073746D02*
X214717542Y-153030889D01*
X214717542Y-153030889D02*
X214812780Y-152988032D01*
X214812780Y-152988032D02*
X214955637Y-152988032D01*
X214955637Y-152988032D02*
X215050875Y-153030889D01*
X215050875Y-153030889D02*
X215098494Y-153116603D01*
X215098494Y-153116603D02*
X215098494Y-153588032D01*
X216336590Y-153588032D02*
X216336590Y-152688032D01*
X216336590Y-152688032D02*
X216574685Y-152688032D01*
X216574685Y-152688032D02*
X216717542Y-152730889D01*
X216717542Y-152730889D02*
X216812780Y-152816603D01*
X216812780Y-152816603D02*
X216860399Y-152902317D01*
X216860399Y-152902317D02*
X216908018Y-153073746D01*
X216908018Y-153073746D02*
X216908018Y-153202317D01*
X216908018Y-153202317D02*
X216860399Y-153373746D01*
X216860399Y-153373746D02*
X216812780Y-153459460D01*
X216812780Y-153459460D02*
X216717542Y-153545175D01*
X216717542Y-153545175D02*
X216574685Y-153588032D01*
X216574685Y-153588032D02*
X216336590Y-153588032D01*
X217288971Y-153545175D02*
X217431828Y-153588032D01*
X217431828Y-153588032D02*
X217669923Y-153588032D01*
X217669923Y-153588032D02*
X217765161Y-153545175D01*
X217765161Y-153545175D02*
X217812780Y-153502317D01*
X217812780Y-153502317D02*
X217860399Y-153416603D01*
X217860399Y-153416603D02*
X217860399Y-153330889D01*
X217860399Y-153330889D02*
X217812780Y-153245175D01*
X217812780Y-153245175D02*
X217765161Y-153202317D01*
X217765161Y-153202317D02*
X217669923Y-153159460D01*
X217669923Y-153159460D02*
X217479447Y-153116603D01*
X217479447Y-153116603D02*
X217384209Y-153073746D01*
X217384209Y-153073746D02*
X217336590Y-153030889D01*
X217336590Y-153030889D02*
X217288971Y-152945175D01*
X217288971Y-152945175D02*
X217288971Y-152859460D01*
X217288971Y-152859460D02*
X217336590Y-152773746D01*
X217336590Y-152773746D02*
X217384209Y-152730889D01*
X217384209Y-152730889D02*
X217479447Y-152688032D01*
X217479447Y-152688032D02*
X217717542Y-152688032D01*
X217717542Y-152688032D02*
X217860399Y-152730889D01*
X209765160Y-154222696D02*
X209812779Y-154179839D01*
X209812779Y-154179839D02*
X209908017Y-154136982D01*
X209908017Y-154136982D02*
X210146112Y-154136982D01*
X210146112Y-154136982D02*
X210241350Y-154179839D01*
X210241350Y-154179839D02*
X210288969Y-154222696D01*
X210288969Y-154222696D02*
X210336588Y-154308410D01*
X210336588Y-154308410D02*
X210336588Y-154394125D01*
X210336588Y-154394125D02*
X210288969Y-154522696D01*
X210288969Y-154522696D02*
X209717541Y-155036982D01*
X209717541Y-155036982D02*
X210336588Y-155036982D01*
X210955636Y-154136982D02*
X211050874Y-154136982D01*
X211050874Y-154136982D02*
X211146112Y-154179839D01*
X211146112Y-154179839D02*
X211193731Y-154222696D01*
X211193731Y-154222696D02*
X211241350Y-154308410D01*
X211241350Y-154308410D02*
X211288969Y-154479839D01*
X211288969Y-154479839D02*
X211288969Y-154694125D01*
X211288969Y-154694125D02*
X211241350Y-154865553D01*
X211241350Y-154865553D02*
X211193731Y-154951267D01*
X211193731Y-154951267D02*
X211146112Y-154994125D01*
X211146112Y-154994125D02*
X211050874Y-155036982D01*
X211050874Y-155036982D02*
X210955636Y-155036982D01*
X210955636Y-155036982D02*
X210860398Y-154994125D01*
X210860398Y-154994125D02*
X210812779Y-154951267D01*
X210812779Y-154951267D02*
X210765160Y-154865553D01*
X210765160Y-154865553D02*
X210717541Y-154694125D01*
X210717541Y-154694125D02*
X210717541Y-154479839D01*
X210717541Y-154479839D02*
X210765160Y-154308410D01*
X210765160Y-154308410D02*
X210812779Y-154222696D01*
X210812779Y-154222696D02*
X210860398Y-154179839D01*
X210860398Y-154179839D02*
X210955636Y-154136982D01*
X212431826Y-154094125D02*
X211574684Y-155251267D01*
X212955636Y-154136982D02*
X213050874Y-154136982D01*
X213050874Y-154136982D02*
X213146112Y-154179839D01*
X213146112Y-154179839D02*
X213193731Y-154222696D01*
X213193731Y-154222696D02*
X213241350Y-154308410D01*
X213241350Y-154308410D02*
X213288969Y-154479839D01*
X213288969Y-154479839D02*
X213288969Y-154694125D01*
X213288969Y-154694125D02*
X213241350Y-154865553D01*
X213241350Y-154865553D02*
X213193731Y-154951267D01*
X213193731Y-154951267D02*
X213146112Y-154994125D01*
X213146112Y-154994125D02*
X213050874Y-155036982D01*
X213050874Y-155036982D02*
X212955636Y-155036982D01*
X212955636Y-155036982D02*
X212860398Y-154994125D01*
X212860398Y-154994125D02*
X212812779Y-154951267D01*
X212812779Y-154951267D02*
X212765160Y-154865553D01*
X212765160Y-154865553D02*
X212717541Y-154694125D01*
X212717541Y-154694125D02*
X212717541Y-154479839D01*
X212717541Y-154479839D02*
X212765160Y-154308410D01*
X212765160Y-154308410D02*
X212812779Y-154222696D01*
X212812779Y-154222696D02*
X212860398Y-154179839D01*
X212860398Y-154179839D02*
X212955636Y-154136982D01*
X214241350Y-155036982D02*
X213669922Y-155036982D01*
X213955636Y-155036982D02*
X213955636Y-154136982D01*
X213955636Y-154136982D02*
X213860398Y-154265553D01*
X213860398Y-154265553D02*
X213765160Y-154351267D01*
X213765160Y-154351267D02*
X213669922Y-154394125D01*
X215384207Y-154094125D02*
X214527065Y-155251267D01*
X215669922Y-154222696D02*
X215717541Y-154179839D01*
X215717541Y-154179839D02*
X215812779Y-154136982D01*
X215812779Y-154136982D02*
X216050874Y-154136982D01*
X216050874Y-154136982D02*
X216146112Y-154179839D01*
X216146112Y-154179839D02*
X216193731Y-154222696D01*
X216193731Y-154222696D02*
X216241350Y-154308410D01*
X216241350Y-154308410D02*
X216241350Y-154394125D01*
X216241350Y-154394125D02*
X216193731Y-154522696D01*
X216193731Y-154522696D02*
X215622303Y-155036982D01*
X215622303Y-155036982D02*
X216241350Y-155036982D01*
X216860398Y-154136982D02*
X216955636Y-154136982D01*
X216955636Y-154136982D02*
X217050874Y-154179839D01*
X217050874Y-154179839D02*
X217098493Y-154222696D01*
X217098493Y-154222696D02*
X217146112Y-154308410D01*
X217146112Y-154308410D02*
X217193731Y-154479839D01*
X217193731Y-154479839D02*
X217193731Y-154694125D01*
X217193731Y-154694125D02*
X217146112Y-154865553D01*
X217146112Y-154865553D02*
X217098493Y-154951267D01*
X217098493Y-154951267D02*
X217050874Y-154994125D01*
X217050874Y-154994125D02*
X216955636Y-155036982D01*
X216955636Y-155036982D02*
X216860398Y-155036982D01*
X216860398Y-155036982D02*
X216765160Y-154994125D01*
X216765160Y-154994125D02*
X216717541Y-154951267D01*
X216717541Y-154951267D02*
X216669922Y-154865553D01*
X216669922Y-154865553D02*
X216622303Y-154694125D01*
X216622303Y-154694125D02*
X216622303Y-154479839D01*
X216622303Y-154479839D02*
X216669922Y-154308410D01*
X216669922Y-154308410D02*
X216717541Y-154222696D01*
X216717541Y-154222696D02*
X216765160Y-154179839D01*
X216765160Y-154179839D02*
X216860398Y-154136982D01*
D12*
%TO.P,J2,S1*%
%TO.N,GND*%
X135175296Y-134673453D03*
D13*
%TO.P,J2,1*%
%TO.N,Net-(J5-Pin_1)*%
X134825296Y-130413453D03*
D12*
%TO.P,J2,S2*%
%TO.N,N/C*%
X135175296Y-126153453D03*
%TD*%
D14*
%TO.P,,1*%
%TO.N,GND*%
X40876000Y-142655000D03*
%TD*%
%TO.P,,1*%
%TO.N,GND*%
X134676000Y-142555000D03*
%TD*%
%TO.P,,1*%
%TO.N,GND*%
X40776000Y-118655000D03*
%TD*%
%TO.P,,1*%
%TO.N,GND*%
X134678694Y-118646337D03*
%TD*%
D15*
%TO.P,R7,1*%
%TO.N,Net-(J4-Pin_1)*%
X115396365Y-127442967D03*
%TO.P,R7,2*%
%TO.N,Net-(J4-Pin_2)*%
X113396365Y-127442967D03*
%TD*%
D16*
%TO.P,R6,1*%
%TO.N,/S+*%
X105544490Y-136632802D03*
%TO.P,R6,2*%
%TO.N,GND*%
X105544490Y-138632802D03*
%TD*%
D17*
%TO.P,R5,1*%
%TO.N,Net-(Q2-E)*%
X102087687Y-138681438D03*
%TO.P,R5,2*%
%TO.N,/S+*%
X102087687Y-136681438D03*
%TD*%
%TO.P,R4,1*%
%TO.N,Net-(J3-Pin_1)*%
X86441741Y-129292536D03*
%TO.P,R4,2*%
%TO.N,GND*%
X86441741Y-127292536D03*
%TD*%
D16*
%TO.P,R3,1*%
%TO.N,Net-(J3-Pin_4)*%
X96876000Y-122555000D03*
%TO.P,R3,2*%
%TO.N,Net-(J3-Pin_1)*%
X96876000Y-124555000D03*
%TD*%
%TO.P,R1,1*%
%TO.N,+5V*%
X78976000Y-130380000D03*
%TO.P,R1,2*%
%TO.N,+2V5*%
X78976000Y-132380000D03*
%TD*%
D18*
%TO.P,C3,1*%
%TO.N,GND*%
X77873506Y-135008916D03*
%TO.P,C3,2*%
%TO.N,+2V5*%
X77873506Y-137083916D03*
%TD*%
%TO.P,C2,1*%
%TO.N,GND*%
X118865716Y-127323732D03*
%TO.P,C2,2*%
%TO.N,+5V*%
X118865716Y-129398732D03*
%TD*%
D19*
%TO.P,C1,1*%
%TO.N,GND*%
X88313500Y-132355000D03*
%TO.P,C1,2*%
%TO.N,+5V*%
X86238500Y-132355000D03*
%TD*%
D20*
%TO.P,U2,1,R1*%
%TO.N,Net-(J4-Pin_2)*%
X112184929Y-129704425D03*
%TO.P,U2,2,-*%
%TO.N,/S-*%
X112184929Y-130354425D03*
%TO.P,U2,3,+*%
%TO.N,/S+*%
X112184929Y-131004425D03*
%TO.P,U2,4,V-*%
%TO.N,GND*%
X112184929Y-131654425D03*
%TO.P,U2,5,REF*%
X116409929Y-131654425D03*
%TO.P,U2,6*%
%TO.N,Net-(R8-Pad1)*%
X116409929Y-131004425D03*
%TO.P,U2,7,V+*%
%TO.N,+5V*%
X116409929Y-130354425D03*
%TO.P,U2,8,R1*%
%TO.N,Net-(J4-Pin_1)*%
X116409929Y-129704425D03*
%TD*%
D21*
%TO.P,C8,1*%
%TO.N,GND*%
X122997883Y-127651402D03*
%TO.P,C8,2*%
%TO.N,+5V*%
X125072883Y-127651402D03*
%TD*%
D22*
%TO.P,J1,1,Pin_1*%
%TO.N,GND*%
X41438664Y-128607340D03*
D23*
%TO.P,J1,2,Pin_2*%
%TO.N,+VIN*%
X41438664Y-126067340D03*
%TD*%
D22*
%TO.P,J3,1,Pin_1*%
%TO.N,Net-(J3-Pin_1)*%
X102299677Y-127281605D03*
D23*
%TO.P,J3,2,Pin_2*%
%TO.N,/S-*%
X102299677Y-124741605D03*
%TO.P,J3,3,Pin_3*%
%TO.N,Net-(J3-Pin_3)*%
X102299677Y-122201605D03*
%TO.P,J3,4,Pin_4*%
%TO.N,Net-(J3-Pin_4)*%
X102299677Y-119661605D03*
%TD*%
D24*
%TO.P,Q2,1,B*%
%TO.N,Net-(Q2-B)*%
X88476000Y-142555000D03*
%TO.P,Q2,2,E*%
%TO.N,Net-(Q2-E)*%
X88476000Y-140655000D03*
%TO.P,Q2,3,C*%
%TO.N,+5V*%
X86476000Y-141605000D03*
%TD*%
D25*
%TO.P,U1,1*%
%TO.N,Net-(Q1-B)*%
X80870087Y-134648767D03*
%TO.P,U1,2,-*%
%TO.N,Net-(J3-Pin_1)*%
X80870087Y-135918767D03*
%TO.P,U1,3,+*%
%TO.N,+2V5*%
X80870087Y-137188767D03*
%TO.P,U1,4,V-*%
%TO.N,GND*%
X80870087Y-138458767D03*
%TO.P,U1,5,+*%
%TO.N,Net-(J3-Pin_3)*%
X85820087Y-138458767D03*
%TO.P,U1,6,-*%
%TO.N,Net-(Q2-E)*%
X85820087Y-137188767D03*
%TO.P,U1,7*%
%TO.N,Net-(R2-Pad2)*%
X85820087Y-135918767D03*
%TO.P,U1,8,V+*%
%TO.N,+5V*%
X85820087Y-134648767D03*
%TD*%
D26*
%TO.P,J5,1,Pin_1*%
%TO.N,Net-(J5-Pin_1)*%
X127848898Y-121226007D03*
D27*
%TO.P,J5,2,Pin_2*%
%TO.N,GND*%
X125308898Y-121226007D03*
%TD*%
D24*
%TO.P,Q1,1,B*%
%TO.N,Net-(Q1-B)*%
X83761049Y-129140984D03*
%TO.P,Q1,2,E*%
%TO.N,Net-(J3-Pin_4)*%
X83761049Y-127240984D03*
%TO.P,Q1,3,C*%
%TO.N,+5V*%
X81761049Y-128190984D03*
%TD*%
D28*
%TO.P,RV2,1,1*%
%TO.N,/S+*%
X110225986Y-136759861D03*
%TO.P,RV2,2,2*%
%TO.N,GND*%
X110225986Y-139299861D03*
%TO.P,RV2,3,3*%
X110225986Y-141839861D03*
%TD*%
D29*
%TO.P,U3,1*%
%TO.N,N/C*%
X75746421Y-131415326D03*
%TO.P,U3,2*%
X74476421Y-131415326D03*
%TO.P,U3,3*%
X73206421Y-131415326D03*
%TO.P,U3,4,A*%
%TO.N,GND*%
X71936421Y-131415326D03*
%TO.P,U3,5*%
%TO.N,N/C*%
X71936421Y-136365326D03*
%TO.P,U3,6*%
X73206421Y-136365326D03*
%TO.P,U3,7*%
X74476421Y-136365326D03*
%TO.P,U3,8,K*%
%TO.N,+2V5*%
X75746421Y-136365326D03*
%TD*%
D28*
%TO.P,RV1,1,1*%
%TO.N,/S+*%
X97087687Y-136756438D03*
%TO.P,RV1,2,2*%
%TO.N,Net-(Q2-E)*%
X97087687Y-139296438D03*
%TO.P,RV1,3,3*%
X97087687Y-141836438D03*
%TD*%
D26*
%TO.P,J4,1,Pin_1*%
%TO.N,Net-(J4-Pin_1)*%
X115716000Y-121255000D03*
D27*
%TO.P,J4,2,Pin_2*%
%TO.N,Net-(J4-Pin_2)*%
X113176000Y-121255000D03*
%TD*%
D30*
%TO.P,C4,1*%
%TO.N,+VIN*%
X55441268Y-125867500D03*
%TO.P,C4,2*%
%TO.N,GND*%
X55441268Y-132042500D03*
%TD*%
D31*
%TO.P,R8,1*%
%TO.N,Net-(R8-Pad1)*%
X118876000Y-132055000D03*
%TO.P,R8,2*%
%TO.N,Net-(U5-+)*%
X120876000Y-132055000D03*
%TD*%
D32*
%TO.P,R10,1*%
%TO.N,Net-(D3-A)*%
X67576000Y-133555000D03*
%TO.P,R10,2*%
%TO.N,+5V*%
X69401000Y-133555000D03*
%TD*%
D33*
%TO.P,C5,1*%
%TO.N,+VIN*%
X62160418Y-125802506D03*
%TO.P,C5,2*%
%TO.N,GND*%
X62160418Y-127702506D03*
%TD*%
D34*
%TO.P,U5,1*%
%TO.N,Net-(U5--)*%
X122840827Y-129676965D03*
%TO.P,U5,2,V-*%
%TO.N,GND*%
X122840827Y-130626965D03*
%TO.P,U5,3,+*%
%TO.N,Net-(U5-+)*%
X122840827Y-131576965D03*
%TO.P,U5,4,-*%
%TO.N,Net-(U5--)*%
X125115827Y-131576965D03*
%TO.P,U5,5,V+*%
%TO.N,+5V*%
X125115827Y-129676965D03*
%TD*%
D17*
%TO.P,R2,1*%
%TO.N,Net-(Q2-B)*%
X83076000Y-142355000D03*
%TO.P,R2,2*%
%TO.N,Net-(R2-Pad2)*%
X83076000Y-140355000D03*
%TD*%
D33*
%TO.P,C9,1*%
%TO.N,Net-(U4-OUT)*%
X69964158Y-125890878D03*
%TO.P,C9,2*%
%TO.N,GND*%
X69964158Y-127790878D03*
%TD*%
D35*
%TO.P,D1,1,A1*%
%TO.N,+VIN*%
X47860060Y-126063372D03*
%TO.P,D1,2,A2*%
%TO.N,GND*%
X47860060Y-128863372D03*
%TD*%
D32*
%TO.P,R12,1*%
%TO.N,+VIN*%
X63351000Y-129955000D03*
%TO.P,R12,2*%
%TO.N,Net-(U4-EN)*%
X65176000Y-129955000D03*
%TD*%
D36*
%TO.P,C7,1*%
%TO.N,GND*%
X130069266Y-132489415D03*
%TO.P,C7,2*%
%TO.N,Net-(J5-Pin_1)*%
X130069266Y-130414415D03*
%TD*%
D37*
%TO.P,D3,1,K*%
%TO.N,GND*%
X44213003Y-135996116D03*
%TO.P,D3,2,A*%
%TO.N,Net-(D3-A)*%
X44213003Y-137871116D03*
%TD*%
D38*
%TO.P,R9,1*%
%TO.N,+5V*%
X78876000Y-127055000D03*
%TO.P,R9,2*%
%TO.N,Net-(U4-OUT)*%
X72776000Y-127055000D03*
%TD*%
D39*
%TO.P,D2,1,GND*%
%TO.N,GND*%
X103828327Y-130326965D03*
D40*
%TO.P,D2,2,I/O1*%
%TO.N,/S-*%
X102128327Y-130326965D03*
%TO.P,D2,3,I/O2*%
%TO.N,/S+*%
X102128327Y-132326965D03*
%TO.P,D2,4,VCC*%
%TO.N,+5V*%
X104028327Y-132326965D03*
%TD*%
D17*
%TO.P,R11,1*%
%TO.N,Net-(U5--)*%
X127369266Y-132451915D03*
%TO.P,R11,2*%
%TO.N,Net-(J5-Pin_1)*%
X127369266Y-130451915D03*
%TD*%
D34*
%TO.P,U4,1,IN*%
%TO.N,+VIN*%
X65100275Y-125758143D03*
%TO.P,U4,2,GND*%
%TO.N,GND*%
X65100275Y-126708143D03*
%TO.P,U4,3,EN*%
%TO.N,Net-(U4-EN)*%
X65100275Y-127658143D03*
%TO.P,U4,4,NC*%
%TO.N,unconnected-(U4-NC-Pad4)*%
X67375275Y-127658143D03*
%TO.P,U4,5,OUT*%
%TO.N,Net-(U4-OUT)*%
X67375275Y-125758143D03*
%TD*%
D19*
%TO.P,C6,1*%
%TO.N,GND*%
X129818962Y-127021913D03*
%TO.P,C6,2*%
%TO.N,Net-(J5-Pin_1)*%
X127743962Y-127021913D03*
%TD*%
D41*
%TO.N,+5V*%
X86476000Y-133755000D03*
X80476000Y-126155000D03*
X87476000Y-134255000D03*
X81676000Y-129255000D03*
X77676000Y-129755000D03*
X126076000Y-126955000D03*
X80376000Y-130355000D03*
X86276000Y-132455000D03*
X81476000Y-125855000D03*
X70076000Y-135155000D03*
X81676000Y-127155000D03*
D42*
X84876000Y-141555000D03*
D41*
X125053327Y-127926965D03*
X69376000Y-133455000D03*
X79076000Y-129255000D03*
D42*
X80476000Y-127255000D03*
D41*
X120076000Y-130155000D03*
X126176000Y-128055000D03*
X118876000Y-129355000D03*
X118876000Y-130255000D03*
X119876000Y-129255000D03*
X85376000Y-133855000D03*
X70576000Y-134355000D03*
X70576000Y-133155000D03*
X69076000Y-135155000D03*
X103976000Y-132355000D03*
X80476000Y-129055000D03*
%TO.N,GND*%
X70331607Y-127777288D03*
X47176000Y-130155000D03*
X79075175Y-139546362D03*
X71315982Y-130136893D03*
X43573396Y-131044840D03*
X71808169Y-131613456D03*
X116476000Y-131655000D03*
X55876000Y-133355000D03*
X45033781Y-131186935D03*
X55676000Y-130755000D03*
X86576000Y-127255000D03*
X48876000Y-130155000D03*
X123076000Y-127655000D03*
X104776000Y-131155000D03*
X42973396Y-130144840D03*
X61576000Y-127755000D03*
X79335745Y-138330369D03*
X105476000Y-138655000D03*
X129881462Y-126921913D03*
X80247739Y-139618743D03*
X112076000Y-131655000D03*
X122876000Y-130655000D03*
X77381470Y-135131150D03*
X65176000Y-126755000D03*
X123976000Y-120055000D03*
X47876000Y-128855000D03*
X88460095Y-132297898D03*
X130076000Y-132524625D03*
X43422844Y-129094932D03*
X103876000Y-130355000D03*
X80913640Y-138388274D03*
X72068739Y-130672509D03*
X69376184Y-128008906D03*
X44276000Y-135955000D03*
X135876000Y-134755000D03*
X78394798Y-134682391D03*
X124776000Y-123155000D03*
X123876000Y-121855000D03*
X55076000Y-132155000D03*
X118865716Y-127336232D03*
X39573396Y-129444840D03*
X70186846Y-128964329D03*
X62676000Y-127755000D03*
X41473396Y-130644840D03*
X40273396Y-130444840D03*
X124976000Y-119355000D03*
%TO.N,/S-*%
X102128327Y-130326965D03*
%TO.N,Net-(J3-Pin_1)*%
X86476000Y-129255000D03*
%TO.N,+VIN*%
X63376000Y-129855000D03*
X42273396Y-124144840D03*
X43473396Y-125244840D03*
X39473396Y-126644840D03*
X62204781Y-125758143D03*
X40873396Y-124144840D03*
X43373396Y-126744840D03*
X43273396Y-124144840D03*
X39773396Y-124144840D03*
X39573396Y-125444840D03*
%TD*%
D43*
%TO.N,Net-(J5-Pin_1)*%
X127743962Y-121330943D02*
X127848898Y-121226007D01*
X127743962Y-127021913D02*
X127743962Y-121330943D01*
X127369266Y-128961734D02*
X127369266Y-130451915D01*
X127743962Y-128587038D02*
X127369266Y-128961734D01*
X127743962Y-127021913D02*
X127743962Y-128587038D01*
D44*
%TO.N,+VIN*%
X41448824Y-126077500D02*
X47845932Y-126077500D01*
X41438664Y-126067340D02*
X41448824Y-126077500D01*
X47845932Y-126077500D02*
X47860060Y-126063372D01*
D43*
%TO.N,Net-(U5--)*%
X126290776Y-132451915D02*
X123515826Y-129676965D01*
X123515826Y-129676965D02*
X122840827Y-129676965D01*
X127369266Y-132451915D02*
X126290776Y-132451915D01*
%TO.N,Net-(J5-Pin_1)*%
X134786834Y-130451915D02*
X134825296Y-130413453D01*
X127369266Y-130451915D02*
X134786834Y-130451915D01*
D45*
%TO.N,Net-(D3-A)*%
X63259884Y-137871116D02*
X44213003Y-137871116D01*
X67576000Y-133555000D02*
X63259884Y-137871116D01*
X44273888Y-137932001D02*
X44213003Y-137871116D01*
%TO.N,+5V*%
X125053327Y-127926965D02*
X125072883Y-127946521D01*
X86426000Y-141555000D02*
X86476000Y-141605000D01*
X125072883Y-129594909D02*
X125053327Y-129614465D01*
D43*
X117897523Y-130354425D02*
X118865716Y-129386232D01*
D45*
X84876000Y-141555000D02*
X86426000Y-141555000D01*
D43*
X116497429Y-130354425D02*
X117897523Y-130354425D01*
D45*
X125072883Y-127946521D02*
X125072883Y-129594909D01*
%TO.N,+2V5*%
X75746421Y-134284579D02*
X77626000Y-132405000D01*
X76569862Y-137188767D02*
X75746421Y-136365326D01*
X77626000Y-132405000D02*
X78976000Y-132405000D01*
X75746421Y-136365326D02*
X75746421Y-134284579D01*
X80870087Y-137188767D02*
X76569862Y-137188767D01*
D43*
%TO.N,Net-(J4-Pin_1)*%
X115421365Y-127442967D02*
X115421365Y-124809635D01*
X115463547Y-124721051D02*
X115716000Y-124468598D01*
X115716000Y-124468598D02*
X115716000Y-121255000D01*
X116497429Y-128519031D02*
X115421365Y-127442967D01*
X116497429Y-129704425D02*
X116497429Y-128519031D01*
%TO.N,Net-(J4-Pin_2)*%
X113371365Y-127442967D02*
X113371365Y-124859635D01*
X112097429Y-129704425D02*
X112097429Y-128716903D01*
X112097429Y-128716903D02*
X113371365Y-127442967D01*
X113176000Y-124524234D02*
X113176000Y-121255000D01*
X113413547Y-124771051D02*
X113418182Y-124766416D01*
X113418182Y-124766416D02*
X113176000Y-124524234D01*
D45*
%TO.N,Net-(Q1-B)*%
X80870087Y-133860913D02*
X80870087Y-134648767D01*
X83761049Y-129140984D02*
X83761049Y-130269951D01*
X80876000Y-133155000D02*
X80876000Y-133855000D01*
X80876000Y-133855000D02*
X80870087Y-133860913D01*
X83761049Y-130269951D02*
X80876000Y-133155000D01*
%TO.N,Net-(Q2-E)*%
X84076000Y-137567110D02*
X84454343Y-137188767D01*
X91476000Y-140655000D02*
X88476000Y-140655000D01*
X84454343Y-137188767D02*
X85820087Y-137188767D01*
X85476000Y-140655000D02*
X84076000Y-139255000D01*
X97087687Y-139296438D02*
X97729125Y-138655000D01*
X97087687Y-141836438D02*
X97087687Y-139296438D01*
X92657438Y-141836438D02*
X91476000Y-140655000D01*
X97087687Y-141836438D02*
X92657438Y-141836438D01*
X88476000Y-140655000D02*
X85476000Y-140655000D01*
X97729125Y-138655000D02*
X102036249Y-138655000D01*
X84076000Y-139255000D02*
X84076000Y-137567110D01*
%TO.N,Net-(Q2-B)*%
X83276000Y-142555000D02*
X88476000Y-142555000D01*
X83076000Y-142355000D02*
X83276000Y-142555000D01*
D43*
%TO.N,/S-*%
X110959928Y-130404425D02*
X107962497Y-130404425D01*
X111009928Y-130354425D02*
X110959928Y-130404425D01*
X112097429Y-130354425D02*
X111009928Y-130354425D01*
X107962497Y-130404425D02*
X102299677Y-124741605D01*
%TO.N,/S+*%
X111009928Y-131004425D02*
X110959928Y-130954425D01*
X112097429Y-131004425D02*
X111009928Y-131004425D01*
D45*
X102128327Y-132326965D02*
X102128327Y-136615798D01*
X110222563Y-136756438D02*
X110225986Y-136759861D01*
X102128327Y-136615798D02*
X102087687Y-136656438D01*
D43*
X110959928Y-130954425D02*
X107737687Y-130954425D01*
X107737687Y-130956438D02*
X102074867Y-136619258D01*
D45*
X97087687Y-136756438D02*
X110222563Y-136756438D01*
%TO.N,Net-(R2-Pad2)*%
X85820087Y-135918767D02*
X83712233Y-135918767D01*
X83076000Y-136555000D02*
X83076000Y-140355000D01*
X83712233Y-135918767D02*
X83076000Y-136555000D01*
D43*
%TO.N,Net-(R8-Pad1)*%
X117825425Y-131004425D02*
X118876000Y-132055000D01*
X116497429Y-131004425D02*
X117825425Y-131004425D01*
%TO.N,Net-(U5-+)*%
X122840827Y-131576965D02*
X121354035Y-131576965D01*
X121354035Y-131576965D02*
X120876000Y-132055000D01*
D44*
%TO.N,Net-(U4-OUT)*%
X71479143Y-125758143D02*
X72776000Y-127055000D01*
X67375275Y-125758143D02*
X71479143Y-125758143D01*
D45*
%TO.N,Net-(J3-Pin_3)*%
X99576000Y-123255000D02*
X100629395Y-122201605D01*
X100629395Y-122201605D02*
X102299677Y-122201605D01*
X99576000Y-126155000D02*
X99576000Y-123255000D01*
X85820087Y-138458767D02*
X87272233Y-138458767D01*
X87272233Y-138458767D02*
X99576000Y-126155000D01*
%TO.N,Net-(J3-Pin_1)*%
X93951000Y-124580000D02*
X96876000Y-124580000D01*
X89276000Y-129255000D02*
X93951000Y-124580000D01*
X86476000Y-129255000D02*
X89276000Y-129255000D01*
X83176000Y-134955000D02*
X83176000Y-132555000D01*
X86413464Y-129317536D02*
X86441741Y-129317536D01*
X80870087Y-135918767D02*
X82212233Y-135918767D01*
X82212233Y-135918767D02*
X83176000Y-134955000D01*
X83176000Y-132555000D02*
X86413464Y-129317536D01*
%TO.N,Net-(J3-Pin_4)*%
X94351000Y-122530000D02*
X96876000Y-122530000D01*
X91340428Y-119661605D02*
X102299677Y-119661605D01*
X91340428Y-119661605D02*
X91482605Y-119661605D01*
X83761049Y-127240984D02*
X91340428Y-119661605D01*
X91482605Y-119661605D02*
X94351000Y-122530000D01*
D43*
%TO.N,Net-(U4-EN)*%
X65100275Y-127658143D02*
X65100275Y-129879275D01*
D44*
%TO.N,+VIN*%
X55441268Y-125867500D02*
X62095424Y-125867500D01*
X55550625Y-125758143D02*
X55441268Y-125867500D01*
D45*
X65100275Y-125758143D02*
X62204781Y-125758143D01*
D44*
X47860060Y-126063372D02*
X55245396Y-126063372D01*
%TD*%
%TA.AperFunction,Conductor*%
%TO.N,+5V*%
G36*
X81678478Y-125174685D02*
G01*
X81713024Y-125207891D01*
X82353585Y-126122978D01*
X82375903Y-126189187D01*
X82376000Y-126194087D01*
X82376000Y-129915912D01*
X82356315Y-129982951D01*
X82353585Y-129987021D01*
X81713024Y-130902109D01*
X81658453Y-130945742D01*
X81611439Y-130955000D01*
X77744070Y-130955000D01*
X77677031Y-130935315D01*
X77639456Y-130897573D01*
X76995386Y-129885463D01*
X76976000Y-129818890D01*
X76976000Y-126194087D01*
X76995685Y-126127048D01*
X76998415Y-126122978D01*
X77638976Y-125207891D01*
X77693547Y-125164258D01*
X77740561Y-125155000D01*
X81611439Y-125155000D01*
X81678478Y-125174685D01*
G37*
%TD.AperFunction*%
%TD*%
%TA.AperFunction,Conductor*%
%TO.N,GND*%
G36*
X39197396Y-127650340D02*
G01*
X39197403Y-127650340D01*
X44649396Y-127650340D01*
X44716435Y-127670025D01*
X44762190Y-127722829D01*
X44773396Y-127774340D01*
X44773396Y-130620840D01*
X44753711Y-130687879D01*
X44700907Y-130733634D01*
X44649396Y-130744840D01*
X39097396Y-130744840D01*
X39030357Y-130725155D01*
X38984602Y-130672351D01*
X38973396Y-130620840D01*
X38973396Y-127762244D01*
X38993081Y-127695205D01*
X39045885Y-127649450D01*
X39113579Y-127639305D01*
X39197396Y-127650340D01*
G37*
%TD.AperFunction*%
%TD*%
%TA.AperFunction,Conductor*%
%TO.N,+5V*%
G36*
X119991677Y-128874685D02*
G01*
X120012319Y-128891319D01*
X120339681Y-129218681D01*
X120373166Y-129280004D01*
X120376000Y-129306362D01*
X120376000Y-130003638D01*
X120356315Y-130070677D01*
X120339681Y-130091319D01*
X120012319Y-130418681D01*
X119950996Y-130452166D01*
X119924638Y-130455000D01*
X118388731Y-130455000D01*
X118321692Y-130435315D01*
X118318323Y-130433072D01*
X118309029Y-130426661D01*
X118303841Y-130421473D01*
X118230154Y-130372238D01*
X118229416Y-130371745D01*
X118229393Y-130371729D01*
X118180926Y-130339344D01*
X118180914Y-130339338D01*
X118168573Y-130334226D01*
X118128347Y-130307347D01*
X117912319Y-130091319D01*
X117878834Y-130029996D01*
X117876000Y-130003638D01*
X117876000Y-129306362D01*
X117895685Y-129239323D01*
X117912319Y-129218681D01*
X118239681Y-128891319D01*
X118301004Y-128857834D01*
X118327362Y-128855000D01*
X119924638Y-128855000D01*
X119991677Y-128874685D01*
G37*
%TD.AperFunction*%
%TD*%
%TA.AperFunction,Conductor*%
%TO.N,+VIN*%
G36*
X44816435Y-123764525D02*
G01*
X44862190Y-123817329D01*
X44873396Y-123868840D01*
X44873396Y-126920840D01*
X44853711Y-126987879D01*
X44800907Y-127033634D01*
X44749396Y-127044840D01*
X39197396Y-127044840D01*
X39130357Y-127025155D01*
X39084602Y-126972351D01*
X39073396Y-126920840D01*
X39073396Y-123868840D01*
X39093081Y-123801801D01*
X39145885Y-123756046D01*
X39197396Y-123744840D01*
X44749396Y-123744840D01*
X44816435Y-123764525D01*
G37*
%TD.AperFunction*%
%TD*%
%TA.AperFunction,Conductor*%
%TO.N,+5V*%
G36*
X126391677Y-126574685D02*
G01*
X126412319Y-126591319D01*
X126519643Y-126698643D01*
X126553128Y-126759966D01*
X126555962Y-126786324D01*
X126555962Y-127570864D01*
X126558779Y-127612412D01*
X126603425Y-127791934D01*
X126603426Y-127791936D01*
X126685618Y-127957663D01*
X126685619Y-127957664D01*
X126685620Y-127957666D01*
X126744135Y-128030461D01*
X126770794Y-128095045D01*
X126758304Y-128163789D01*
X126735169Y-128195830D01*
X126512319Y-128418681D01*
X126450996Y-128452166D01*
X126424638Y-128455000D01*
X125027362Y-128455000D01*
X124960323Y-128435315D01*
X124939681Y-128418681D01*
X124512319Y-127991319D01*
X124478834Y-127929996D01*
X124476000Y-127903638D01*
X124476000Y-127206362D01*
X124495685Y-127139323D01*
X124512319Y-127118681D01*
X125039681Y-126591319D01*
X125101004Y-126557834D01*
X125127362Y-126555000D01*
X126324638Y-126555000D01*
X126391677Y-126574685D01*
G37*
%TD.AperFunction*%
%TD*%
%TA.AperFunction,Conductor*%
%TO.N,+5V*%
G36*
X87157812Y-131367300D02*
G01*
X87203567Y-131420104D01*
X87213511Y-131489262D01*
X87201861Y-131526709D01*
X87172965Y-131584972D01*
X87172964Y-131584974D01*
X87128317Y-131764500D01*
X87125500Y-131806048D01*
X87125500Y-132903951D01*
X87128317Y-132945499D01*
X87172963Y-133125021D01*
X87172964Y-133125023D01*
X87255156Y-133290750D01*
X87255157Y-133290751D01*
X87255158Y-133290753D01*
X87358013Y-133418709D01*
X87374796Y-133447035D01*
X87939057Y-134011296D01*
X87972542Y-134072619D01*
X87975376Y-134098977D01*
X87975376Y-134596253D01*
X87955691Y-134663292D01*
X87939057Y-134683934D01*
X87711695Y-134911296D01*
X87650372Y-134944781D01*
X87624014Y-134947615D01*
X84841739Y-134947615D01*
X84774700Y-134927930D01*
X84738565Y-134892398D01*
X84596202Y-134678854D01*
X84575394Y-134612155D01*
X84575376Y-134610071D01*
X84575376Y-134102738D01*
X84595061Y-134035699D01*
X84616295Y-134010685D01*
X85086872Y-133585998D01*
X85118315Y-133565317D01*
X85375376Y-133447615D01*
X85475376Y-133147615D01*
X85475376Y-131776887D01*
X85488467Y-131721433D01*
X85556698Y-131584972D01*
X85604553Y-131489262D01*
X85639132Y-131420104D01*
X85641103Y-131416161D01*
X85688690Y-131365002D01*
X85752012Y-131347615D01*
X87090773Y-131347615D01*
X87157812Y-131367300D01*
G37*
%TD.AperFunction*%
%TD*%
M02*
