%TF.GenerationSoftware,KiCad,Pcbnew,9.0.5*%
%TF.CreationDate,2026-03-07T21:07:17-03:00*%
%TF.ProjectId,Ponte,506f6e74-652e-46b6-9963-61645f706362,rev?*%
%TF.SameCoordinates,Original*%
%TF.FileFunction,Legend,Bot*%
%TF.FilePolarity,Positive*%
%FSLAX46Y46*%
G04 Gerber Fmt 4.6, Leading zero omitted, Abs format (unit mm)*
G04 Created by KiCad (PCBNEW 9.0.5) date 2026-03-07 21:07:17*
%MOMM*%
%LPD*%
G01*
G04 APERTURE LIST*
G04 APERTURE END LIST*
%LPC*%
G36*
X41303308Y-140140043D02*
G01*
X41582207Y-140203700D01*
X41852225Y-140298183D01*
X42109967Y-140422305D01*
X42352190Y-140574504D01*
X42575850Y-140752867D01*
X42778133Y-140955150D01*
X42956496Y-141178810D01*
X43108695Y-141421033D01*
X43232817Y-141678775D01*
X43327300Y-141948793D01*
X43390957Y-142227692D01*
X43422987Y-142511964D01*
X43422987Y-142798036D01*
X43390957Y-143082308D01*
X43327300Y-143361207D01*
X43232817Y-143631225D01*
X43108695Y-143888967D01*
X42956496Y-144131190D01*
X42778133Y-144354850D01*
X42575850Y-144557133D01*
X42352190Y-144735496D01*
X42109967Y-144887695D01*
X41852225Y-145011817D01*
X41582207Y-145106300D01*
X41303308Y-145169957D01*
X41019036Y-145201987D01*
X40732964Y-145201987D01*
X40448692Y-145169957D01*
X40169793Y-145106300D01*
X39899775Y-145011817D01*
X39642033Y-144887695D01*
X39399810Y-144735496D01*
X39176150Y-144557133D01*
X38973867Y-144354850D01*
X38795504Y-144131190D01*
X38643305Y-143888967D01*
X38519183Y-143631225D01*
X38424700Y-143361207D01*
X38361043Y-143082308D01*
X38329013Y-142798036D01*
X38329013Y-142511964D01*
X38361043Y-142227692D01*
X38424700Y-141948793D01*
X38519183Y-141678775D01*
X38643305Y-141421033D01*
X38795504Y-141178810D01*
X38973867Y-140955150D01*
X39176150Y-140752867D01*
X39399810Y-140574504D01*
X39642033Y-140422305D01*
X39899775Y-140298183D01*
X40169793Y-140203700D01*
X40448692Y-140140043D01*
X40732964Y-140108013D01*
X41019036Y-140108013D01*
X41303308Y-140140043D01*
G37*
G36*
X135103308Y-140040043D02*
G01*
X135382207Y-140103700D01*
X135652225Y-140198183D01*
X135909967Y-140322305D01*
X136152190Y-140474504D01*
X136375850Y-140652867D01*
X136578133Y-140855150D01*
X136756496Y-141078810D01*
X136908695Y-141321033D01*
X137032817Y-141578775D01*
X137127300Y-141848793D01*
X137190957Y-142127692D01*
X137222987Y-142411964D01*
X137222987Y-142698036D01*
X137190957Y-142982308D01*
X137127300Y-143261207D01*
X137032817Y-143531225D01*
X136908695Y-143788967D01*
X136756496Y-144031190D01*
X136578133Y-144254850D01*
X136375850Y-144457133D01*
X136152190Y-144635496D01*
X135909967Y-144787695D01*
X135652225Y-144911817D01*
X135382207Y-145006300D01*
X135103308Y-145069957D01*
X134819036Y-145101987D01*
X134532964Y-145101987D01*
X134248692Y-145069957D01*
X133969793Y-145006300D01*
X133699775Y-144911817D01*
X133442033Y-144787695D01*
X133199810Y-144635496D01*
X132976150Y-144457133D01*
X132773867Y-144254850D01*
X132595504Y-144031190D01*
X132443305Y-143788967D01*
X132319183Y-143531225D01*
X132224700Y-143261207D01*
X132161043Y-142982308D01*
X132129013Y-142698036D01*
X132129013Y-142411964D01*
X132161043Y-142127692D01*
X132224700Y-141848793D01*
X132319183Y-141578775D01*
X132443305Y-141321033D01*
X132595504Y-141078810D01*
X132773867Y-140855150D01*
X132976150Y-140652867D01*
X133199810Y-140474504D01*
X133442033Y-140322305D01*
X133699775Y-140198183D01*
X133969793Y-140103700D01*
X134248692Y-140040043D01*
X134532964Y-140008013D01*
X134819036Y-140008013D01*
X135103308Y-140040043D01*
G37*
G36*
X110449795Y-141102060D02*
G01*
X110589433Y-141159900D01*
X110715103Y-141243870D01*
X110821977Y-141350744D01*
X110905947Y-141476414D01*
X110963787Y-141616052D01*
X110993273Y-141764290D01*
X110993273Y-141915432D01*
X110963787Y-142063670D01*
X110905947Y-142203308D01*
X110821977Y-142328978D01*
X110715103Y-142435852D01*
X110589433Y-142519822D01*
X110449795Y-142577662D01*
X110301557Y-142607148D01*
X110150415Y-142607148D01*
X110002177Y-142577662D01*
X109862539Y-142519822D01*
X109736869Y-142435852D01*
X109629995Y-142328978D01*
X109546025Y-142203308D01*
X109488185Y-142063670D01*
X109458699Y-141915432D01*
X109458699Y-141764290D01*
X109488185Y-141616052D01*
X109546025Y-141476414D01*
X109629995Y-141350744D01*
X109736869Y-141243870D01*
X109862539Y-141159900D01*
X110002177Y-141102060D01*
X110150415Y-141072574D01*
X110301557Y-141072574D01*
X110449795Y-141102060D01*
G37*
G36*
X97311496Y-141098637D02*
G01*
X97451134Y-141156477D01*
X97576804Y-141240447D01*
X97683678Y-141347321D01*
X97767648Y-141472991D01*
X97825488Y-141612629D01*
X97854974Y-141760867D01*
X97854974Y-141912009D01*
X97825488Y-142060247D01*
X97767648Y-142199885D01*
X97683678Y-142325555D01*
X97576804Y-142432429D01*
X97451134Y-142516399D01*
X97311496Y-142574239D01*
X97163258Y-142603725D01*
X97012116Y-142603725D01*
X96863878Y-142574239D01*
X96724240Y-142516399D01*
X96598570Y-142432429D01*
X96491696Y-142325555D01*
X96407726Y-142199885D01*
X96349886Y-142060247D01*
X96320400Y-141912009D01*
X96320400Y-141760867D01*
X96349886Y-141612629D01*
X96407726Y-141472991D01*
X96491696Y-141347321D01*
X96598570Y-141240447D01*
X96724240Y-141156477D01*
X96863878Y-141098637D01*
X97012116Y-141069151D01*
X97163258Y-141069151D01*
X97311496Y-141098637D01*
G37*
G36*
X110449795Y-138562060D02*
G01*
X110589433Y-138619900D01*
X110715103Y-138703870D01*
X110821977Y-138810744D01*
X110905947Y-138936414D01*
X110963787Y-139076052D01*
X110993273Y-139224290D01*
X110993273Y-139375432D01*
X110963787Y-139523670D01*
X110905947Y-139663308D01*
X110821977Y-139788978D01*
X110715103Y-139895852D01*
X110589433Y-139979822D01*
X110449795Y-140037662D01*
X110301557Y-140067148D01*
X110150415Y-140067148D01*
X110002177Y-140037662D01*
X109862539Y-139979822D01*
X109736869Y-139895852D01*
X109629995Y-139788978D01*
X109546025Y-139663308D01*
X109488185Y-139523670D01*
X109458699Y-139375432D01*
X109458699Y-139224290D01*
X109488185Y-139076052D01*
X109546025Y-138936414D01*
X109629995Y-138810744D01*
X109736869Y-138703870D01*
X109862539Y-138619900D01*
X110002177Y-138562060D01*
X110150415Y-138532574D01*
X110301557Y-138532574D01*
X110449795Y-138562060D01*
G37*
G36*
X97311496Y-138558637D02*
G01*
X97451134Y-138616477D01*
X97576804Y-138700447D01*
X97683678Y-138807321D01*
X97767648Y-138932991D01*
X97825488Y-139072629D01*
X97854974Y-139220867D01*
X97854974Y-139372009D01*
X97825488Y-139520247D01*
X97767648Y-139659885D01*
X97683678Y-139785555D01*
X97576804Y-139892429D01*
X97451134Y-139976399D01*
X97311496Y-140034239D01*
X97163258Y-140063725D01*
X97012116Y-140063725D01*
X96863878Y-140034239D01*
X96724240Y-139976399D01*
X96598570Y-139892429D01*
X96491696Y-139785555D01*
X96407726Y-139659885D01*
X96349886Y-139520247D01*
X96320400Y-139372009D01*
X96320400Y-139220867D01*
X96349886Y-139072629D01*
X96407726Y-138932991D01*
X96491696Y-138807321D01*
X96598570Y-138700447D01*
X96724240Y-138616477D01*
X96863878Y-138558637D01*
X97012116Y-138529151D01*
X97163258Y-138529151D01*
X97311496Y-138558637D01*
G37*
G36*
X110449795Y-136022060D02*
G01*
X110589433Y-136079900D01*
X110715103Y-136163870D01*
X110821977Y-136270744D01*
X110905947Y-136396414D01*
X110963787Y-136536052D01*
X110993273Y-136684290D01*
X110993273Y-136835432D01*
X110963787Y-136983670D01*
X110905947Y-137123308D01*
X110821977Y-137248978D01*
X110715103Y-137355852D01*
X110589433Y-137439822D01*
X110449795Y-137497662D01*
X110301557Y-137527148D01*
X110150415Y-137527148D01*
X110002177Y-137497662D01*
X109862539Y-137439822D01*
X109736869Y-137355852D01*
X109629995Y-137248978D01*
X109546025Y-137123308D01*
X109488185Y-136983670D01*
X109458699Y-136835432D01*
X109458699Y-136684290D01*
X109488185Y-136536052D01*
X109546025Y-136396414D01*
X109629995Y-136270744D01*
X109736869Y-136163870D01*
X109862539Y-136079900D01*
X110002177Y-136022060D01*
X110150415Y-135992574D01*
X110301557Y-135992574D01*
X110449795Y-136022060D01*
G37*
G36*
X97311496Y-136018637D02*
G01*
X97451134Y-136076477D01*
X97576804Y-136160447D01*
X97683678Y-136267321D01*
X97767648Y-136392991D01*
X97825488Y-136532629D01*
X97854974Y-136680867D01*
X97854974Y-136832009D01*
X97825488Y-136980247D01*
X97767648Y-137119885D01*
X97683678Y-137245555D01*
X97576804Y-137352429D01*
X97451134Y-137436399D01*
X97311496Y-137494239D01*
X97163258Y-137523725D01*
X97012116Y-137523725D01*
X96863878Y-137494239D01*
X96724240Y-137436399D01*
X96598570Y-137352429D01*
X96491696Y-137245555D01*
X96407726Y-137119885D01*
X96349886Y-136980247D01*
X96320400Y-136832009D01*
X96320400Y-136680867D01*
X96349886Y-136532629D01*
X96407726Y-136392991D01*
X96491696Y-136267321D01*
X96598570Y-136160447D01*
X96724240Y-136076477D01*
X96863878Y-136018637D01*
X97012116Y-135989151D01*
X97163258Y-135989151D01*
X97311496Y-136018637D01*
G37*
G36*
X137644813Y-133826335D02*
G01*
X137661358Y-133837391D01*
X137672414Y-133853936D01*
X137676296Y-133873453D01*
X137676296Y-135473453D01*
X137672414Y-135492970D01*
X137661358Y-135509515D01*
X137644813Y-135520571D01*
X137625296Y-135524453D01*
X132725296Y-135524453D01*
X132705779Y-135520571D01*
X132689234Y-135509515D01*
X132678178Y-135492970D01*
X132674296Y-135473453D01*
X132674296Y-133873453D01*
X132678178Y-133853936D01*
X132689234Y-133837391D01*
X132705779Y-133826335D01*
X132725296Y-133822453D01*
X137625296Y-133822453D01*
X137644813Y-133826335D01*
G37*
G36*
X42352578Y-127694335D02*
G01*
X42368390Y-127701316D01*
X42376195Y-127702553D01*
X42408703Y-127719116D01*
X42453770Y-127739016D01*
X42531988Y-127817234D01*
X42551890Y-127862307D01*
X42568450Y-127894808D01*
X42569685Y-127902610D01*
X42576669Y-127918426D01*
X42584664Y-127987340D01*
X42584664Y-129227340D01*
X42576669Y-129296254D01*
X42569685Y-129312069D01*
X42568450Y-129319871D01*
X42551893Y-129352364D01*
X42531988Y-129397446D01*
X42453770Y-129475664D01*
X42408688Y-129495569D01*
X42376195Y-129512126D01*
X42368393Y-129513361D01*
X42352578Y-129520345D01*
X42283664Y-129528340D01*
X40593664Y-129528340D01*
X40524750Y-129520345D01*
X40508934Y-129513361D01*
X40501132Y-129512126D01*
X40468631Y-129495566D01*
X40423558Y-129475664D01*
X40345340Y-129397446D01*
X40325440Y-129352379D01*
X40308877Y-129319871D01*
X40307640Y-129312066D01*
X40300659Y-129296254D01*
X40292664Y-129227340D01*
X40292664Y-127987340D01*
X40300659Y-127918426D01*
X40307640Y-127902614D01*
X40308877Y-127894808D01*
X40325444Y-127862293D01*
X40345340Y-127817234D01*
X40423558Y-127739016D01*
X40468617Y-127719120D01*
X40501132Y-127702553D01*
X40508938Y-127701316D01*
X40524750Y-127694335D01*
X40593664Y-127686340D01*
X42283664Y-127686340D01*
X42352578Y-127694335D01*
G37*
G36*
X103213591Y-126368600D02*
G01*
X103229403Y-126375581D01*
X103237208Y-126376818D01*
X103269716Y-126393381D01*
X103314783Y-126413281D01*
X103393001Y-126491499D01*
X103412903Y-126536572D01*
X103429463Y-126569073D01*
X103430698Y-126576875D01*
X103437682Y-126592691D01*
X103445677Y-126661605D01*
X103445677Y-127901605D01*
X103437682Y-127970519D01*
X103430698Y-127986334D01*
X103429463Y-127994136D01*
X103412906Y-128026629D01*
X103393001Y-128071711D01*
X103314783Y-128149929D01*
X103269701Y-128169834D01*
X103237208Y-128186391D01*
X103229406Y-128187626D01*
X103213591Y-128194610D01*
X103144677Y-128202605D01*
X101454677Y-128202605D01*
X101385763Y-128194610D01*
X101369947Y-128187626D01*
X101362145Y-128186391D01*
X101329644Y-128169831D01*
X101284571Y-128149929D01*
X101206353Y-128071711D01*
X101186453Y-128026644D01*
X101169890Y-127994136D01*
X101168653Y-127986331D01*
X101161672Y-127970519D01*
X101153677Y-127901605D01*
X101153677Y-126661605D01*
X101161672Y-126592691D01*
X101168653Y-126576879D01*
X101169890Y-126569073D01*
X101186457Y-126536558D01*
X101206353Y-126491499D01*
X101284571Y-126413281D01*
X101329630Y-126393385D01*
X101362145Y-126376818D01*
X101369951Y-126375581D01*
X101385763Y-126368600D01*
X101454677Y-126360605D01*
X103144677Y-126360605D01*
X103213591Y-126368600D01*
G37*
G36*
X137644813Y-125306335D02*
G01*
X137661358Y-125317391D01*
X137672414Y-125333936D01*
X137676296Y-125353453D01*
X137676296Y-126953453D01*
X137672414Y-126972970D01*
X137661358Y-126989515D01*
X137644813Y-127000571D01*
X137625296Y-127004453D01*
X132725296Y-127004453D01*
X132705779Y-127000571D01*
X132689234Y-126989515D01*
X132678178Y-126972970D01*
X132674296Y-126953453D01*
X132674296Y-125353453D01*
X132678178Y-125333936D01*
X132689234Y-125317391D01*
X132705779Y-125306335D01*
X132725296Y-125302453D01*
X137625296Y-125302453D01*
X137644813Y-125306335D01*
G37*
G36*
X41753938Y-125150775D02*
G01*
X41931016Y-125185998D01*
X42097820Y-125255091D01*
X42247940Y-125355397D01*
X42375607Y-125483064D01*
X42475913Y-125633184D01*
X42545006Y-125799988D01*
X42580229Y-125977066D01*
X42580229Y-126157614D01*
X42545006Y-126334692D01*
X42475913Y-126501496D01*
X42375607Y-126651616D01*
X42247940Y-126779283D01*
X42097820Y-126879589D01*
X41931016Y-126948682D01*
X41753938Y-126983905D01*
X41663664Y-126988340D01*
X41660604Y-126988340D01*
X41216724Y-126988340D01*
X41213664Y-126988340D01*
X41123390Y-126983905D01*
X40946312Y-126948682D01*
X40779508Y-126879589D01*
X40629388Y-126779283D01*
X40501721Y-126651616D01*
X40401415Y-126501496D01*
X40332322Y-126334692D01*
X40297099Y-126157614D01*
X40297099Y-125977066D01*
X40332322Y-125799988D01*
X40401415Y-125633184D01*
X40501721Y-125483064D01*
X40629388Y-125355397D01*
X40779508Y-125255091D01*
X40946312Y-125185998D01*
X41123390Y-125150775D01*
X41213664Y-125146340D01*
X41663664Y-125146340D01*
X41753938Y-125150775D01*
G37*
G36*
X102614951Y-123825040D02*
G01*
X102792029Y-123860263D01*
X102958833Y-123929356D01*
X103108953Y-124029662D01*
X103236620Y-124157329D01*
X103336926Y-124307449D01*
X103406019Y-124474253D01*
X103441242Y-124651331D01*
X103441242Y-124831879D01*
X103406019Y-125008957D01*
X103336926Y-125175761D01*
X103236620Y-125325881D01*
X103108953Y-125453548D01*
X102958833Y-125553854D01*
X102792029Y-125622947D01*
X102614951Y-125658170D01*
X102524677Y-125662605D01*
X102521617Y-125662605D01*
X102077737Y-125662605D01*
X102074677Y-125662605D01*
X101984403Y-125658170D01*
X101807325Y-125622947D01*
X101640521Y-125553854D01*
X101490401Y-125453548D01*
X101362734Y-125325881D01*
X101262428Y-125175761D01*
X101193335Y-125008957D01*
X101158112Y-124831879D01*
X101158112Y-124651331D01*
X101193335Y-124474253D01*
X101262428Y-124307449D01*
X101362734Y-124157329D01*
X101490401Y-124029662D01*
X101640521Y-123929356D01*
X101807325Y-123860263D01*
X101984403Y-123825040D01*
X102074677Y-123820605D01*
X102524677Y-123820605D01*
X102614951Y-123825040D01*
G37*
G36*
X102614951Y-121285040D02*
G01*
X102792029Y-121320263D01*
X102958833Y-121389356D01*
X103108953Y-121489662D01*
X103236620Y-121617329D01*
X103336926Y-121767449D01*
X103406019Y-121934253D01*
X103441242Y-122111331D01*
X103441242Y-122291879D01*
X103406019Y-122468957D01*
X103336926Y-122635761D01*
X103236620Y-122785881D01*
X103108953Y-122913548D01*
X102958833Y-123013854D01*
X102792029Y-123082947D01*
X102614951Y-123118170D01*
X102524677Y-123122605D01*
X102521617Y-123122605D01*
X102077737Y-123122605D01*
X102074677Y-123122605D01*
X101984403Y-123118170D01*
X101807325Y-123082947D01*
X101640521Y-123013854D01*
X101490401Y-122913548D01*
X101362734Y-122785881D01*
X101262428Y-122635761D01*
X101193335Y-122468957D01*
X101158112Y-122291879D01*
X101158112Y-122111331D01*
X101193335Y-121934253D01*
X101262428Y-121767449D01*
X101362734Y-121617329D01*
X101490401Y-121489662D01*
X101640521Y-121389356D01*
X101807325Y-121320263D01*
X101984403Y-121285040D01*
X102074677Y-121280605D01*
X102524677Y-121280605D01*
X102614951Y-121285040D01*
G37*
G36*
X116404914Y-120116995D02*
G01*
X116420726Y-120123976D01*
X116428531Y-120125213D01*
X116461039Y-120141776D01*
X116506106Y-120161676D01*
X116584324Y-120239894D01*
X116604226Y-120284967D01*
X116620786Y-120317468D01*
X116622021Y-120325270D01*
X116629005Y-120341086D01*
X116637000Y-120410000D01*
X116637000Y-122100000D01*
X116629005Y-122168914D01*
X116622021Y-122184729D01*
X116620786Y-122192531D01*
X116604229Y-122225024D01*
X116584324Y-122270106D01*
X116506106Y-122348324D01*
X116461024Y-122368229D01*
X116428531Y-122384786D01*
X116420729Y-122386021D01*
X116404914Y-122393005D01*
X116336000Y-122401000D01*
X115096000Y-122401000D01*
X115027086Y-122393005D01*
X115011270Y-122386021D01*
X115003468Y-122384786D01*
X114970967Y-122368226D01*
X114925894Y-122348324D01*
X114847676Y-122270106D01*
X114827776Y-122225039D01*
X114811213Y-122192531D01*
X114809976Y-122184726D01*
X114802995Y-122168914D01*
X114795000Y-122100000D01*
X114795000Y-120410000D01*
X114802995Y-120341086D01*
X114809976Y-120325274D01*
X114811213Y-120317468D01*
X114827780Y-120284953D01*
X114847676Y-120239894D01*
X114925894Y-120161676D01*
X114970953Y-120141780D01*
X115003468Y-120125213D01*
X115011274Y-120123976D01*
X115027086Y-120116995D01*
X115096000Y-120109000D01*
X116336000Y-120109000D01*
X116404914Y-120116995D01*
G37*
G36*
X113443352Y-120148658D02*
G01*
X113610156Y-120217751D01*
X113760276Y-120318057D01*
X113887943Y-120445724D01*
X113988249Y-120595844D01*
X114057342Y-120762648D01*
X114092565Y-120939726D01*
X114097000Y-121030000D01*
X114097000Y-121480000D01*
X114092565Y-121570274D01*
X114057342Y-121747352D01*
X113988249Y-121914156D01*
X113887943Y-122064276D01*
X113760276Y-122191943D01*
X113610156Y-122292249D01*
X113443352Y-122361342D01*
X113266274Y-122396565D01*
X113085726Y-122396565D01*
X112908648Y-122361342D01*
X112741844Y-122292249D01*
X112591724Y-122191943D01*
X112464057Y-122064276D01*
X112363751Y-121914156D01*
X112294658Y-121747352D01*
X112259435Y-121570274D01*
X112255000Y-121480000D01*
X112255000Y-121030000D01*
X112259435Y-120939726D01*
X112294658Y-120762648D01*
X112363751Y-120595844D01*
X112464057Y-120445724D01*
X112591724Y-120318057D01*
X112741844Y-120217751D01*
X112908648Y-120148658D01*
X113085726Y-120113435D01*
X113266274Y-120113435D01*
X113443352Y-120148658D01*
G37*
G36*
X128537812Y-120088002D02*
G01*
X128553624Y-120094983D01*
X128561429Y-120096220D01*
X128593937Y-120112783D01*
X128639004Y-120132683D01*
X128717222Y-120210901D01*
X128737124Y-120255974D01*
X128753684Y-120288475D01*
X128754919Y-120296277D01*
X128761903Y-120312093D01*
X128769898Y-120381007D01*
X128769898Y-122071007D01*
X128761903Y-122139921D01*
X128754919Y-122155736D01*
X128753684Y-122163538D01*
X128737127Y-122196031D01*
X128717222Y-122241113D01*
X128639004Y-122319331D01*
X128593922Y-122339236D01*
X128561429Y-122355793D01*
X128553627Y-122357028D01*
X128537812Y-122364012D01*
X128468898Y-122372007D01*
X127228898Y-122372007D01*
X127159984Y-122364012D01*
X127144168Y-122357028D01*
X127136366Y-122355793D01*
X127103865Y-122339233D01*
X127058792Y-122319331D01*
X126980574Y-122241113D01*
X126960674Y-122196046D01*
X126944111Y-122163538D01*
X126942874Y-122155733D01*
X126935893Y-122139921D01*
X126927898Y-122071007D01*
X126927898Y-120381007D01*
X126935893Y-120312093D01*
X126942874Y-120296281D01*
X126944111Y-120288475D01*
X126960678Y-120255960D01*
X126980574Y-120210901D01*
X127058792Y-120132683D01*
X127103851Y-120112787D01*
X127136366Y-120096220D01*
X127144172Y-120094983D01*
X127159984Y-120088002D01*
X127228898Y-120080007D01*
X128468898Y-120080007D01*
X128537812Y-120088002D01*
G37*
G36*
X125576250Y-120119665D02*
G01*
X125743054Y-120188758D01*
X125893174Y-120289064D01*
X126020841Y-120416731D01*
X126121147Y-120566851D01*
X126190240Y-120733655D01*
X126225463Y-120910733D01*
X126229898Y-121001007D01*
X126229898Y-121451007D01*
X126225463Y-121541281D01*
X126190240Y-121718359D01*
X126121147Y-121885163D01*
X126020841Y-122035283D01*
X125893174Y-122162950D01*
X125743054Y-122263256D01*
X125576250Y-122332349D01*
X125399172Y-122367572D01*
X125218624Y-122367572D01*
X125041546Y-122332349D01*
X124874742Y-122263256D01*
X124724622Y-122162950D01*
X124596955Y-122035283D01*
X124496649Y-121885163D01*
X124427556Y-121718359D01*
X124392333Y-121541281D01*
X124387898Y-121451007D01*
X124387898Y-121001007D01*
X124392333Y-120910733D01*
X124427556Y-120733655D01*
X124496649Y-120566851D01*
X124596955Y-120416731D01*
X124724622Y-120289064D01*
X124874742Y-120188758D01*
X125041546Y-120119665D01*
X125218624Y-120084442D01*
X125399172Y-120084442D01*
X125576250Y-120119665D01*
G37*
G36*
X41203308Y-116140043D02*
G01*
X41482207Y-116203700D01*
X41752225Y-116298183D01*
X42009967Y-116422305D01*
X42252190Y-116574504D01*
X42475850Y-116752867D01*
X42678133Y-116955150D01*
X42856496Y-117178810D01*
X43008695Y-117421033D01*
X43132817Y-117678775D01*
X43227300Y-117948793D01*
X43290957Y-118227692D01*
X43322987Y-118511964D01*
X43322987Y-118798036D01*
X43290957Y-119082308D01*
X43227300Y-119361207D01*
X43132817Y-119631225D01*
X43008695Y-119888967D01*
X42856496Y-120131190D01*
X42678133Y-120354850D01*
X42475850Y-120557133D01*
X42252190Y-120735496D01*
X42009967Y-120887695D01*
X41752225Y-121011817D01*
X41482207Y-121106300D01*
X41203308Y-121169957D01*
X40919036Y-121201987D01*
X40632964Y-121201987D01*
X40348692Y-121169957D01*
X40069793Y-121106300D01*
X39799775Y-121011817D01*
X39542033Y-120887695D01*
X39299810Y-120735496D01*
X39076150Y-120557133D01*
X38873867Y-120354850D01*
X38695504Y-120131190D01*
X38543305Y-119888967D01*
X38419183Y-119631225D01*
X38324700Y-119361207D01*
X38261043Y-119082308D01*
X38229013Y-118798036D01*
X38229013Y-118511964D01*
X38261043Y-118227692D01*
X38324700Y-117948793D01*
X38419183Y-117678775D01*
X38543305Y-117421033D01*
X38695504Y-117178810D01*
X38873867Y-116955150D01*
X39076150Y-116752867D01*
X39299810Y-116574504D01*
X39542033Y-116422305D01*
X39799775Y-116298183D01*
X40069793Y-116203700D01*
X40348692Y-116140043D01*
X40632964Y-116108013D01*
X40919036Y-116108013D01*
X41203308Y-116140043D01*
G37*
G36*
X135106002Y-116131380D02*
G01*
X135384901Y-116195037D01*
X135654919Y-116289520D01*
X135912661Y-116413642D01*
X136154884Y-116565841D01*
X136378544Y-116744204D01*
X136580827Y-116946487D01*
X136759190Y-117170147D01*
X136911389Y-117412370D01*
X137035511Y-117670112D01*
X137129994Y-117940130D01*
X137193651Y-118219029D01*
X137225681Y-118503301D01*
X137225681Y-118789373D01*
X137193651Y-119073645D01*
X137129994Y-119352544D01*
X137035511Y-119622562D01*
X136911389Y-119880304D01*
X136759190Y-120122527D01*
X136580827Y-120346187D01*
X136378544Y-120548470D01*
X136154884Y-120726833D01*
X135912661Y-120879032D01*
X135654919Y-121003154D01*
X135384901Y-121097637D01*
X135106002Y-121161294D01*
X134821730Y-121193324D01*
X134535658Y-121193324D01*
X134251386Y-121161294D01*
X133972487Y-121097637D01*
X133702469Y-121003154D01*
X133444727Y-120879032D01*
X133202504Y-120726833D01*
X132978844Y-120548470D01*
X132776561Y-120346187D01*
X132598198Y-120122527D01*
X132445999Y-119880304D01*
X132321877Y-119622562D01*
X132227394Y-119352544D01*
X132163737Y-119073645D01*
X132131707Y-118789373D01*
X132131707Y-118503301D01*
X132163737Y-118219029D01*
X132227394Y-117940130D01*
X132321877Y-117670112D01*
X132445999Y-117412370D01*
X132598198Y-117170147D01*
X132776561Y-116946487D01*
X132978844Y-116744204D01*
X133202504Y-116565841D01*
X133444727Y-116413642D01*
X133702469Y-116289520D01*
X133972487Y-116195037D01*
X134251386Y-116131380D01*
X134535658Y-116099350D01*
X134821730Y-116099350D01*
X135106002Y-116131380D01*
G37*
G36*
X102614951Y-118745040D02*
G01*
X102792029Y-118780263D01*
X102958833Y-118849356D01*
X103108953Y-118949662D01*
X103236620Y-119077329D01*
X103336926Y-119227449D01*
X103406019Y-119394253D01*
X103441242Y-119571331D01*
X103441242Y-119751879D01*
X103406019Y-119928957D01*
X103336926Y-120095761D01*
X103236620Y-120245881D01*
X103108953Y-120373548D01*
X102958833Y-120473854D01*
X102792029Y-120542947D01*
X102614951Y-120578170D01*
X102524677Y-120582605D01*
X102521617Y-120582605D01*
X102077737Y-120582605D01*
X102074677Y-120582605D01*
X101984403Y-120578170D01*
X101807325Y-120542947D01*
X101640521Y-120473854D01*
X101490401Y-120373548D01*
X101362734Y-120245881D01*
X101262428Y-120095761D01*
X101193335Y-119928957D01*
X101158112Y-119751879D01*
X101158112Y-119571331D01*
X101193335Y-119394253D01*
X101262428Y-119227449D01*
X101362734Y-119077329D01*
X101490401Y-118949662D01*
X101640521Y-118849356D01*
X101807325Y-118780263D01*
X101984403Y-118745040D01*
X102074677Y-118740605D01*
X102524677Y-118740605D01*
X102614951Y-118745040D01*
G37*
%LPD*%
M02*
