M48
; DRILL file {KiCad 9.0.5} date 2026-03-07T21:07:17-0300
; FORMAT={-:-/ absolute / inch / decimal}
; #@! TF.CreationDate,2026-03-07T21:07:17-03:00
; #@! TF.GenerationSoftware,Kicad,Pcbnew,9.0.5
; #@! TF.FileFunction,Plated,1,4,PTH
FMAT,2
INCH
; #@! TA.AperFunction,Plated,PTH,ViaDrill
T1C0.0118
; #@! TA.AperFunction,Plated,PTH,ViaDrill
T2C0.0295
; #@! TA.AperFunction,Plated,PTH,ComponentDrill
T3C0.0315
; #@! TA.AperFunction,Plated,PTH,ComponentDrill
T4C0.0469
; #@! TA.AperFunction,Plated,PTH,ComponentDrill
T5C0.1181
%
G90
G05
T1
X1.5541Y-4.986
X1.558Y-4.9388
X1.558Y-5.0963
X1.5659Y-4.8876
X1.5856Y-5.1356
X1.6092Y-4.8876
X1.6328Y-5.1435
X1.6643Y-4.8876
X1.6919Y-5.1238
X1.7037Y-4.8876
X1.7076Y-4.99
X1.7096Y-5.0825
X1.7116Y-4.9309
X1.7155Y-5.1592
X1.7431Y-5.3526
X1.773Y-5.1648
X1.8573Y-5.1242
X1.8849Y-5.073
X1.9243Y-5.1242
X2.1683Y-5.203
X2.192Y-5.1478
X2.1998Y-5.2502
X2.4243Y-5.0297
X2.449Y-4.9511
X2.4676Y-5.0297
X2.4951Y-5.1124
X2.566Y-4.9904
X2.7195Y-5.3211
X2.7313Y-5.2541
X2.7313Y-5.0397
X2.7589Y-5.3211
X2.7633Y-5.0773
X2.769Y-5.0306
X2.7786Y-5.2423
X2.7786Y-5.2896
X2.8077Y-5.1235
X2.8271Y-5.1816
X2.8374Y-5.1446
X3.0465Y-5.3201
X3.0581Y-5.1085
X3.0864Y-5.3025
X3.1132Y-5.494
X3.1132Y-5.0888
X3.1235Y-5.4461
X3.1594Y-5.4968
X3.1644Y-5.1321
X3.1683Y-4.9667
X3.1683Y-5.0809
X3.1856Y-5.4484
X3.2077Y-4.9549
X3.2156Y-5.0061
X3.2156Y-5.0888
X3.3613Y-5.2699
X3.3967Y-5.2148
X3.4046Y-5.0888
X3.4046Y-5.2659
X3.4085Y-5.01
X3.4439Y-5.2856
X3.4827Y-5.2086
X4.0208Y-5.131
X4.0896Y-5.1321
X4.0935Y-5.2108
X4.125Y-5.1636
X4.1526Y-5.4589
X4.4124Y-5.1833
X4.5857Y-5.1833
X4.6798Y-5.0132
X4.6802Y-5.0927
X4.6802Y-5.1281
X4.7195Y-5.0888
X4.7274Y-5.1242
X4.8376Y-5.1439
X4.8455Y-5.0258
X4.877Y-4.7974
X4.8809Y-4.7266
X4.9124Y-4.8486
X4.9203Y-4.699
X4.9234Y-5.0365
X4.9636Y-4.9982
X4.9676Y-5.0415
X5.1134Y-4.9969
X5.1211Y-5.2175
X5.3494Y-5.3053
T2
X3.1683Y-5.01
X3.3416Y-5.573
T3
X3.8223Y-5.3841
X3.8223Y-5.4841
X3.8223Y-5.5841
X4.3396Y-5.3842
X4.3396Y-5.4842
X4.3396Y-5.5842
T4
X1.6314Y-4.9633
X1.6314Y-5.0633
X4.0275Y-4.7111
X4.0275Y-4.8111
X4.0275Y-4.9111
X4.0275Y-5.0111
X4.4557Y-4.7738
X4.5557Y-4.7738
X4.9334Y-4.7727
X5.0334Y-4.7727
T5
X1.6054Y-4.6715
X1.6093Y-5.6163
X5.3022Y-5.6124
X5.3023Y-4.6711
M30
